<?xml version="1.0" encoding="UTF-8" standalone="no"?>
<svg
   version="1.1"
   id="svg2"
   viewBox="0 0 54 32"
   sodipodi:docname="akregator.svg"
   inkscape:version="1.1.1 (3bf5ae0d25, 2021-09-20, custom)"
   xmlns:inkscape="http://www.inkscape.org/namespaces/inkscape"
   xmlns:sodipodi="http://sodipodi.sourceforge.net/DTD/sodipodi-0.dtd"
   xmlns:xlink="http://www.w3.org/1999/xlink"
   xmlns="http://www.w3.org/2000/svg"
   xmlns:svg="http://www.w3.org/2000/svg">
  <sodipodi:namedview
     id="namedview11"
     pagecolor="#ffffff"
     bordercolor="#666666"
     borderopacity="1.0"
     inkscape:pageshadow="2"
     inkscape:pageopacity="0.0"
     inkscape:pagecheckerboard="0"
     showgrid="false"
     inkscape:zoom="5.1910519"
     inkscape:cx="32.267063"
     inkscape:cy="14.736897"
     inkscape:window-width="1323"
     inkscape:window-height="744"
     inkscape:window-x="43"
     inkscape:window-y="0"
     inkscape:window-maximized="1"
     inkscape:current-layer="svg2" />
  <defs
     id="defs3051">
    <linearGradient
       inkscape:collect="always"
       id="linearGradient851">
      <stop
         style="stop-color:#00ffff;stop-opacity:1"
         offset="0"
         id="stop847" />
      <stop
         style="stop-color:#0000ff;stop-opacity:1"
         offset="1"
         id="stop849" />
    </linearGradient>
    <style
       type="text/css"
       id="current-color-scheme">.ColorScheme-Text{color:#dfdfdf}</style>
    <linearGradient
       inkscape:collect="always"
       xlink:href="#linearGradient851"
       id="linearGradient853"
       x1="25.867844"
       y1="27.989143"
       x2="50"
       y2="16"
       gradientUnits="userSpaceOnUse" />
    <linearGradient
       inkscape:collect="always"
       xlink:href="#linearGradient851"
       id="linearGradient937"
       x1="3.3668952"
       y1="29.038641"
       x2="19"
       y2="21"
       gradientUnits="userSpaceOnUse" />
  </defs>
  <g
     id="22-22-akregator">
    <path
       id="path7"
       d="M 0,10 V 32 H 22 V 10 Z"
       opacity="1"
       fill="none" />
    <path
       id="path9"
       d="m 3,13 v 3 a 13,13 0 0 1 13,13 h 3 A 16,16 0 0 0 3,13 Z m 0,6 v 3 a 7,7 0 0 1 7,7 h 3 A 10,10 0 0 0 3,19 Z m 2,6 a 2,2 0 0 0 -2,2 2,2 0 0 0 2,2 2,2 0 0 0 2,-2 2,2 0 0 0 -2,-2 z"
       class="ColorScheme-Text"
       fill="currentColor"
       fill-opacity="1"
       stroke="none"
       style="fill-opacity:1;fill:url(#linearGradient937)" />
  </g>
  <g
     id="akregator">
    <path
       id="path12"
       d="m 26,4 v 4 a 20,20 0 0 1 20,20 h 4 A 24,24 0 0 0 26,4 Z m 0,8 v 4 a 12,12 0 0 1 12,12 h 4 A 16,16 0 0 0 26,12 Z m 3.5,9 A 3.5,3.5 0 0 0 26,24.5 3.5,3.5 0 0 0 29.5,28 3.5,3.5 0 0 0 33,24.5 3.5,3.5 0 0 0 29.5,21 Z"
       class="ColorScheme-Text"
       fill="currentColor"
       fill-opacity="1"
       stroke="none"
       style="fill-opacity:1;fill:url(#linearGradient853)" />
    <path
       id="path14"
       d="M 22,0 V 32 H 54 V 0 Z"
       opacity="1"
       fill="none" />
  </g>
</svg>
