<?xml version="1.0" encoding="UTF-8" standalone="no"?>
<svg
   width="22"
   height="22"
   enable-background="new"
   version="1.1"
   id="svg65"
   sodipodi:docname="audio.svg"
   inkscape:version="1.1.1 (3bf5ae0d25, 2021-09-20, custom)"
   xmlns:inkscape="http://www.inkscape.org/namespaces/inkscape"
   xmlns:sodipodi="http://sodipodi.sourceforge.net/DTD/sodipodi-0.dtd"
   xmlns:xlink="http://www.w3.org/1999/xlink"
   xmlns="http://www.w3.org/2000/svg"
   xmlns:svg="http://www.w3.org/2000/svg">
  <sodipodi:namedview
     id="namedview67"
     pagecolor="#ffffff"
     bordercolor="#666666"
     borderopacity="1.0"
     inkscape:pageshadow="2"
     inkscape:pageopacity="0.0"
     inkscape:pagecheckerboard="0"
     showgrid="false"
     inkscape:zoom="2.3310063"
     inkscape:cx="-30.244449"
     inkscape:cy="41.39843"
     inkscape:window-width="1323"
     inkscape:window-height="744"
     inkscape:window-x="43"
     inkscape:window-y="0"
     inkscape:window-maximized="1"
     inkscape:current-layer="svg65" />
  <defs
     id="defs3">
    <linearGradient
       inkscape:collect="always"
       id="linearGradient907">
      <stop
         style="stop-color:#00ffff;stop-opacity:1"
         offset="0"
         id="stop903" />
      <stop
         style="stop-color:#000080;stop-opacity:1"
         offset="1"
         id="stop905" />
    </linearGradient>
    <style
       id="current-color-scheme"
       type="text/css">.ColorScheme-Text { color:#dedede; } .ColorScheme-Highlight { color:#5294e2; } .ColorScheme-ButtonBackground { color:#dedede; }</style>
    <linearGradient
       inkscape:collect="always"
       xlink:href="#linearGradient907"
       id="linearGradient909"
       x1="104.995"
       y1="199.96"
       x2="119.54"
       y2="199.96"
       gradientUnits="userSpaceOnUse" />
    <linearGradient
       inkscape:collect="always"
       xlink:href="#linearGradient907"
       id="linearGradient1278"
       x1="165"
       y1="200"
       x2="172"
       y2="200"
       gradientUnits="userSpaceOnUse" />
    <linearGradient
       inkscape:collect="always"
       xlink:href="#linearGradient907"
       id="linearGradient1324"
       x1="275"
       y1="-405"
       x2="276.79001"
       y2="-405"
       gradientUnits="userSpaceOnUse" />
    <linearGradient
       inkscape:collect="always"
       xlink:href="#linearGradient907"
       id="linearGradient1370"
       x1="275"
       y1="-405"
       x2="280.5"
       y2="-405"
       gradientUnits="userSpaceOnUse" />
    <linearGradient
       inkscape:collect="always"
       xlink:href="#linearGradient907"
       id="linearGradient1378"
       x1="145"
       y1="200"
       x2="155.78909"
       y2="200"
       gradientUnits="userSpaceOnUse" />
    <linearGradient
       inkscape:collect="always"
       xlink:href="#linearGradient907"
       id="linearGradient1386"
       x1="275"
       y1="-405"
       x2="280.5"
       y2="-405"
       gradientUnits="userSpaceOnUse" />
    <linearGradient
       inkscape:collect="always"
       xlink:href="#linearGradient907"
       id="linearGradient1394"
       x1="104.995"
       y1="199.96001"
       x2="119.54"
       y2="199.96001"
       gradientUnits="userSpaceOnUse" />
    <linearGradient
       inkscape:collect="always"
       xlink:href="#linearGradient907"
       id="linearGradient1402"
       x1="165"
       y1="200"
       x2="172"
       y2="200"
       gradientUnits="userSpaceOnUse" />
    <linearGradient
       inkscape:collect="always"
       xlink:href="#linearGradient907"
       id="linearGradient1410"
       x1="275"
       y1="-405"
       x2="276.79001"
       y2="-405"
       gradientUnits="userSpaceOnUse" />
    <linearGradient
       inkscape:collect="always"
       xlink:href="#linearGradient907"
       id="linearGradient1418"
       x1="275"
       y1="-405"
       x2="280.5"
       y2="-405"
       gradientUnits="userSpaceOnUse" />
    <linearGradient
       inkscape:collect="always"
       xlink:href="#linearGradient907"
       id="linearGradient1426"
       x1="145"
       y1="200"
       x2="155.78909"
       y2="200"
       gradientUnits="userSpaceOnUse" />
    <linearGradient
       inkscape:collect="always"
       xlink:href="#linearGradient907"
       id="linearGradient1434"
       x1="275"
       y1="-405"
       x2="280.5"
       y2="-405"
       gradientUnits="userSpaceOnUse" />
  </defs>
  <g
     id="audio-volume-muted"
     transform="translate(-32.206)">
    <path
       d="m0 0h22v22h-22v-22z"
       opacity="0"
       id="path5" />
    <g
       transform="translate(-262 416)"
       id="g9">
      <path
         class="ColorScheme-Text"
         transform="translate(160.95 -604.96)"
         d="m112.04 192.96-4.043 4.0449h-3.002v6h3.0898l3.9551 3.9551zm2 0v1.5c2.32 0.74 4 2.93 4 5.5s-1.68 4.76-4 5.5v1.5c3.15-0.78 5.5-3.6 5.5-7s-2.35-6.22-5.5-7zm0 4v6c1.06-0.58 1.791-1.7 1.791-3s-0.72102-2.42-1.791-3z"
         fill="currentColor"
         opacity=".3"
         id="path7" />
    </g>
  </g>
  <g
     id="audio-volume-high">
    <path
       d="M 0,0 H 22 V 22 H 0 Z"
       opacity="0"
       id="path12" />
    <g
       transform="translate(-262,416)"
       enable-background="new"
       id="g16">
      <path
         class="ColorScheme-Text"
         transform="translate(160.95,-604.96)"
         d="m 112.04,192.96 -4.043,4.0449 h -3.002 v 6 h 3.0898 l 3.9551,3.9551 z m 2,0 v 1.5 c 2.32,0.74 4,2.93 4,5.5 0,2.57 -1.68,4.76 -4,5.5 v 1.5 c 3.15,-0.78 5.5,-3.6 5.5,-7 0,-3.4 -2.35,-6.22 -5.5,-7 z m 0,4 v 6 c 1.06,-0.58 1.791,-1.7 1.791,-3 0,-1.3 -0.72102,-2.42 -1.791,-3 z"
         fill="currentColor"
         id="path14"
         style="fill-opacity:1;fill:url(#linearGradient909)" />
    </g>
  </g>
  <g
     id="audio-volume-low">
    <path
       d="M 25,0 H 47 V 22 H 25 Z"
       fill="none"
       id="path19" />
    <g
       class="ColorScheme-Text"
       transform="translate(-237,416)"
       fill="currentColor"
       id="g27">
      <path
         transform="translate(101,-605)"
         d="m 172,193 -3.9102,3.998 H 165 v 6 h 3.0879 L 172,207 Z"
         id="path21"
         style="fill-opacity:1.0;fill:url(#linearGradient1278)" />
      <path
         d="m 275,-412 v 1.5 c 2.32,0.74 4,2.93 4,5.5 0,2.57 -1.68,4.76 -4,5.5 v 1.5 c 3.15,-0.78 5.5,-3.6 5.5,-7 0,-3.4 -2.35,-6.22 -5.5,-7 z"
         opacity="0.35"
         id="path23"
         style="fill-opacity:1.0;fill:url(#linearGradient1370)" />
      <path
         d="m 276.79,-405 c 0,-1.3 -0.72,-2.42 -1.79,-3 v 6 c 1.06,-0.58 1.79,-1.7 1.79,-3 z"
         opacity="0.35"
         id="path25"
         style="fill-opacity:1.0;fill:url(#linearGradient1324)" />
    </g>
  </g>
  <g
     id="audio-volume-medium">
    <path
       d="M 50,0 H 72 V 22 H 50 Z"
       fill="none"
       id="path30" />
    <g
       class="ColorScheme-Text"
       transform="translate(-212,416)"
       fill="currentColor"
       id="g36">
      <path
         transform="translate(121,-605)"
         d="m 152,193 -3.9102,3.998 H 145 v 6 h 3.0879 L 152,207 Z m 2,4 v 6 c 1.06,-0.58 1.7891,-1.7 1.7891,-3 0,-1.3 -0.71906,-2.42 -1.7891,-3 z"
         id="path32"
         style="fill-opacity:1.0;fill:url(#linearGradient1378)" />
      <path
         d="m 275,-412 v 1.5 c 2.32,0.74 4,2.93 4,5.5 0,2.57 -1.68,4.76 -4,5.5 v 1.5 c 3.15,-0.78 5.5,-3.6 5.5,-7 0,-3.4 -2.35,-6.22 -5.5,-7 z"
         opacity="0.35"
         id="path34"
         style="fill-opacity:1.0;fill:url(#linearGradient1386)" />
    </g>
  </g>
  <g
     id="16-16-audio-volume-high"
     class="ColorScheme-Text"
     transform="translate(-262,446.63)"
     fill="currentColor">
    <rect
       x="265"
       y="-413"
       width="16"
       height="16"
       fill="none"
       id="rect39" />
    <path
       transform="translate(160.95,-604.96)"
       d="m 112.04,192.96 -4.043,4.0449 h -3.002 v 6 h 3.0898 l 3.9551,3.9551 z m 2,0 v 1.5 c 2.32,0.74 4,2.93 4,5.5 0,2.57 -1.68,4.76 -4,5.5 v 1.5 c 3.15,-0.78 5.5,-3.6 5.5,-7 0,-3.4 -2.35,-6.22 -5.5,-7 z m 0,4 v 6 c 1.06,-0.58 1.791,-1.7 1.791,-3 0,-1.3 -0.72102,-2.42 -1.791,-3 z"
       id="path41"
       style="fill-opacity:1.0;fill:url(#linearGradient1394)" />
  </g>
  <g
     id="16-16-audio-volume-muted"
     transform="translate(-294.75 446.09)"
     enable-background="new">
    <rect
       x="265"
       y="-413"
       width="16"
       height="16"
       color="#bebebe"
       fill="none"
       opacity=".1"
       id="rect44" />
    <path
       transform="translate(160.95,-604.96)"
       d="m112.04 192.96-4.043 4.0449h-3.002v6h3.0898l3.9551 3.9551zm2 0v1.5c2.32 0.74 4 2.93 4 5.5s-1.68 4.76-4 5.5v1.5c3.15-0.78 5.5-3.6 5.5-7s-2.35-6.22-5.5-7zm0 4v6c1.06-0.58 1.791-1.7 1.791-3s-0.72102-2.42-1.791-3z"
       fill="#dedede"
       opacity=".3"
       id="path46" />
  </g>
  <g
     id="16-16-audio-volume-low"
     transform="translate(-234.41,446.93)"
     enable-background="new">
    <rect
       x="265"
       y="-413"
       width="16"
       height="16"
       color="#bebebe"
       fill="none"
       opacity="0.1"
       id="rect49" />
    <path
       transform="translate(101,-605)"
       d="m 172,193 -3.9102,3.998 H 165 v 6 h 3.0879 L 172,207 Z"
       fill="#dedede"
       id="path51"
       style="fill-opacity:1.0;fill:url(#linearGradient1402)" />
    <path
       d="m 275,-412 v 1.5 c 2.32,0.74 4,2.93 4,5.5 0,2.57 -1.68,4.76 -4,5.5 v 1.5 c 3.15,-0.78 5.5,-3.6 5.5,-7 0,-3.4 -2.35,-6.22 -5.5,-7 z"
       fill="#dedede"
       opacity="0.35"
       id="path53"
       style="fill-opacity:1.0;fill:url(#linearGradient1418)" />
    <path
       d="m 276.79,-405 c 0,-1.3 -0.72,-2.42 -1.79,-3 v 6 c 1.06,-0.58 1.79,-1.7 1.79,-3 z"
       fill="#dedede"
       opacity="0.35"
       id="path55"
       style="fill-opacity:1.0;fill:url(#linearGradient1410)" />
  </g>
  <g
     id="16-16-audio-volume-medium"
     transform="translate(-206.68,446.58)"
     enable-background="new">
    <rect
       x="265"
       y="-413"
       width="16"
       height="16"
       color="#bebebe"
       fill="none"
       opacity="0.1"
       id="rect58" />
    <path
       transform="translate(121,-605)"
       d="m 152,193 -3.9102,3.998 H 145 v 6 h 3.0879 L 152,207 Z m 2,4 v 6 c 1.06,-0.58 1.7891,-1.7 1.7891,-3 0,-1.3 -0.71906,-2.42 -1.7891,-3 z"
       fill="#dedede"
       id="path60"
       style="fill-opacity:1.0;fill:url(#linearGradient1426)" />
    <path
       d="m 275,-412 v 1.5 c 2.32,0.74 4,2.93 4,5.5 0,2.57 -1.68,4.76 -4,5.5 v 1.5 c 3.15,-0.78 5.5,-3.6 5.5,-7 0,-3.4 -2.35,-6.22 -5.5,-7 z"
       fill="#dedede"
       opacity="0.35"
       id="path62"
       style="fill-opacity:1.0;fill:url(#linearGradient1434)" />
  </g>
</svg>
