<?xml version="1.0" encoding="UTF-8" standalone="no"?>
<svg
   width="32"
   height="32"
   version="1.1"
   id="svg19"
   sodipodi:docname="bookmarks.svg"
   inkscape:version="1.1.1 (3bf5ae0d25, 2021-09-20, custom)"
   xmlns:inkscape="http://www.inkscape.org/namespaces/inkscape"
   xmlns:sodipodi="http://sodipodi.sourceforge.net/DTD/sodipodi-0.dtd"
   xmlns:xlink="http://www.w3.org/1999/xlink"
   xmlns="http://www.w3.org/2000/svg"
   xmlns:svg="http://www.w3.org/2000/svg"
   xmlns:rdf="http://www.w3.org/1999/02/22-rdf-syntax-ns#"
   xmlns:cc="http://creativecommons.org/ns#"
   xmlns:dc="http://purl.org/dc/elements/1.1/">
  <metadata
     id="metadata23">
    <rdf:RDF>
      <cc:Work
         rdf:about="">
        <dc:format>image/svg+xml</dc:format>
        <dc:type
           rdf:resource="http://purl.org/dc/dcmitype/StillImage" />
        <dc:title />
      </cc:Work>
    </rdf:RDF>
  </metadata>
  <sodipodi:namedview
     pagecolor="#3a3a3a"
     bordercolor="#666666"
     borderopacity="1"
     objecttolerance="10"
     gridtolerance="10"
     guidetolerance="10"
     inkscape:pageopacity="0"
     inkscape:pageshadow="2"
     inkscape:window-width="1323"
     inkscape:window-height="744"
     id="namedview21"
     showgrid="true"
     inkscape:zoom="10.429825"
     inkscape:cx="10.786375"
     inkscape:cy="15.580319"
     inkscape:window-x="43"
     inkscape:window-y="0"
     inkscape:window-maximized="1"
     inkscape:current-layer="svg19"
     inkscape:snap-bbox="true"
     inkscape:snap-bbox-edge-midpoints="true"
     inkscape:bbox-nodes="true"
     inkscape:pagecheckerboard="0">
    <inkscape:grid
       type="xygrid"
       id="grid819" />
  </sodipodi:namedview>
  <defs
     id="defs6">
    <linearGradient
       inkscape:collect="always"
       id="linearGradient852">
      <stop
         style="stop-color:#4f00bc;stop-opacity:1"
         offset="0"
         id="stop848" />
      <stop
         style="stop-color:#ff00ff;stop-opacity:1"
         offset="1"
         id="stop850" />
    </linearGradient>
    <style
       id="current-color-scheme"
       type="text/css">.ColorScheme-Text { color:#dedede; } .ColorScheme-Highlight { color:#5294e2; } .ColorScheme-ButtonBackground { color:#dedede; }</style>
    <filter
       id="a"
       x="-.036"
       y="-.036"
       width="1.072"
       height="1.072"
       color-interpolation-filters="sRGB">
      <feGaussianBlur
         stdDeviation="0.43506"
         id="feGaussianBlur3" />
    </filter>
    <style
       id="style835"
       type="text/css" />
    <linearGradient
       inkscape:collect="always"
       xlink:href="#linearGradient852"
       id="linearGradient854"
       x1="1"
       y1="16"
       x2="31"
       y2="16"
       gradientUnits="userSpaceOnUse" />
  </defs>
  <g
     id="bookmarks">
    <rect
       x="4.2724611e-07"
       y="1.5506744e-08"
       width="32"
       height="32"
       rx="0"
       ry="0"
       style="opacity:0;stroke-width:2;paint-order:fill markers stroke"
       id="rect8" />
    <path
       id="path12"
       d="M 16,1 A 15,15 0 0 0 1,16 15,15 0 0 0 16,31 15,15 0 0 0 31,16 15,15 0 0 0 16,1 Z m 0.02734,6.125 a 1.0001,1.0001 0 0 1 0.0059,0 1.0001,1.0001 0 0 1 0.09961,0.00977 c 0.637573,0.090209 1.200837,0.4656905 1.529297,1.0195313 l -0.02344,-0.039063 2.24414,3.4179686 3.433594,0.923828 a 1.0001,1.0001 0 0 1 0.08398,0.02734 c 0.612311,0.224027 1.218767,0.605833 1.427734,1.322266 a 1.0001,1.0001 0 0 1 0.0078,0.0293 c 0.195502,0.755416 -0.0085,1.562549 -0.539063,2.134765 l 0.06836,-0.08203 -2.427734,3.251953 0.205078,3.630859 a 1.0001,1.0001 0 0 1 0.002,0.0957 c -0.02902,0.725407 -0.249216,1.337891 -0.699219,1.71289 -0.450001,0.375047 -0.998364,0.373047 -1.099609,0.373047 a 1.0001,1.0001 0 0 1 -0.02734,0 c -0.271755,-0.0073 -0.539306,-0.05583 -0.796875,-0.142578 a 1.0001,1.0001 0 0 1 -0.03125,-0.01172 l -3.728515,-1.392578 -3.25,1.326172 a 1.0001,1.0001 0 0 1 -0.07031,0.02539 c -0.464314,0.150225 -0.84926,0.217194 -1.226562,0.189454 -0.377302,-0.02774 -0.779598,-0.172243 -1.052735,-0.5 a 1.0001,1.0001 0 0 1 -0.09766,-0.140625 C 9.7748341,23.805515 9.6769564,23.223056 9.7617188,22.654297 L 9.875,18.521484 7.6191406,15.701172 a 1.0001,1.0001 0 0 1 -0.00586,-0.0059 C 7.1874972,15.153901 7.0119251,14.455467 7.1328125,13.777344 A 1.0001,1.0001 0 0 1 7.234375,13.486328 c 0.3090795,-0.586262 0.8755774,-0.996387 1.5292969,-1.105469 l -0.1308594,0.03125 3.8046875,-1.171875 1.894531,-3.0566402 -0.0332,0.060547 C 14.607906,7.657875 15.174415,7.2477569 15.828125,7.1386719 A 1.0001,1.0001 0 0 1 16.027344,7.125 Z m -0.03516,1 c -0.346516,0.057823 -0.644759,0.2732213 -0.808594,0.5839844 l -2.09375,3.3749996 -4.1621096,1.283204 c -0.3465146,0.05782 -0.6467116,0.273221 -0.8105469,0.583984 -0.070937,0.397924 0.031399,0.807274 0.28125,1.125 l 2.4863285,3.105469 -0.123047,4.5 c -0.08811,0.382824 -0.02858,0.784876 0.167969,1.125 0.112493,0.13499 0.440119,0.24749 1.205078,0 l 3.611328,-1.47461 4.09375,1.53125 c 0.163325,0.05501 0.333581,0.08519 0.505859,0.08984 0.202489,0 0.75383,-7e-5 0.798828,-1.125 l -0.224609,-3.982422 0.123047,-0.179687 2.521484,-3.375 c 0.299713,-0.323271 0.413183,-0.776355 0.302735,-1.203125 -0.07875,-0.26999 -0.349321,-0.495314 -0.810547,-0.664063 L 19.255859,12.400391 16.802734,8.6640625 C 16.628634,8.3705294 16.330103,8.1728109 15.992188,8.125 Z"
       style="color:#000000;overflow:visible;opacity:0.8;fill:url(#linearGradient854);fill-opacity:1;stroke-width:1.14286" />
  </g>
</svg>
