<?xml version="1.0" encoding="UTF-8" standalone="no"?>
<svg
   version="1.1"
   viewBox="0 0 54 32"
   id="svg15"
   sodipodi:docname="cantata.svg"
   inkscape:version="1.1.1 (3bf5ae0d25, 2021-09-20, custom)"
   xmlns:inkscape="http://www.inkscape.org/namespaces/inkscape"
   xmlns:sodipodi="http://sodipodi.sourceforge.net/DTD/sodipodi-0.dtd"
   xmlns:xlink="http://www.w3.org/1999/xlink"
   xmlns="http://www.w3.org/2000/svg"
   xmlns:svg="http://www.w3.org/2000/svg">
  <sodipodi:namedview
     id="namedview17"
     pagecolor="#ffffff"
     bordercolor="#666666"
     borderopacity="1.0"
     inkscape:pageshadow="2"
     inkscape:pageopacity="0.0"
     inkscape:pagecheckerboard="0"
     showgrid="false"
     inkscape:zoom="8.5761598"
     inkscape:cx="26.410422"
     inkscape:cy="14.283782"
     inkscape:window-width="1323"
     inkscape:window-height="744"
     inkscape:window-x="43"
     inkscape:window-y="0"
     inkscape:window-maximized="1"
     inkscape:current-layer="svg15" />
  <defs
     id="defs3">
    <linearGradient
       inkscape:collect="always"
       id="linearGradient857">
      <stop
         style="stop-color:#e26715;stop-opacity:1"
         offset="0"
         id="stop853" />
      <stop
         style="stop-color:#df3bdd;stop-opacity:1"
         offset="1"
         id="stop855" />
    </linearGradient>
    <style
       id="current-color-scheme"
       type="text/css">.ColorScheme-Text{color:#dfdfdf}</style>
    <linearGradient
       inkscape:collect="always"
       xlink:href="#linearGradient857"
       id="linearGradient859"
       x1="26"
       y1="16"
       x2="50"
       y2="16"
       gradientUnits="userSpaceOnUse" />
    <linearGradient
       inkscape:collect="always"
       xlink:href="#linearGradient857"
       id="linearGradient981"
       x1="3"
       y1="21"
       x2="19"
       y2="21"
       gradientUnits="userSpaceOnUse" />
  </defs>
  <g
     id="22-22-cantata">
    <path
       d="m 11,13 c -4.4183,0 -8,3.5817 -8,8 0,4.4183 3.5817,8 8,8 4.4183,0 8,-3.5817 8,-8 0,-4.4183 -3.5817,-8 -8,-8 z m 0,1.6602 1,0.33984 c 0,0 0.3932,1.2057 0.70898,1.5215 0.49894,0.49895 2.4492,1.6358 2.4492,4.1621 0,1.8947 -1.2629,3.1581 -2.8418,4.1055 1.5789,-1.5789 2.2109,-2.2107 2.2109,-4.1055 0,-2.5263 -2.5273,-2.8418 -2.5273,-2.8418 v 6.877 c 0,0.70263 -0.6614,1.8699 -1.7422,2.3184 -1.3697,0.56763 -2.8056,0.24249 -3.2051,-0.72461 -0.40105,-0.96631 0.38496,-2.2105 1.7539,-2.7773 0.81789,-0.33947 1.6026,-0.3692 2.1934,-0.13086 v -8.7441 z"
       color="#dfdfdf"
       fill="currentColor"
       fill-opacity="0.6"
       id="path5"
       style="fill-opacity:1.0;fill:url(#linearGradient981)" />
    <path
       d="M 0,10 V 32 H 22 V 10 Z"
       fill="none"
       id="path7" />
  </g>
  <g
     id="cantata">
    <path
       d="M 38,4 C 31.3726,4 26,9.3726 26,16 26,22.6274 31.3726,28 38,28 44.6274,28 50,22.6274 50,16 50,9.3726 44.6274,4 38,4 Z m 0,1.8789 1.2695,0.69727 c 0,0 0.58609,1.7951 1.0566,2.2656 0.74347,0.74347 3.6484,2.4364 3.6484,6.1992 0,2.8217 -1.8035,4.5473 -4.1562,5.959 2.3528,-2.3512 3.2168,-3.1365 3.2168,-5.959 0,-3.7629 -4.0352,-4.1621 -4.0352,-4.1621 v 10 c 0.0024,1.0462 -0.71805,2.9568 -2.3281,3.625 -2.0414,0.84464 -3.9215,0.38716 -4.5176,-1.0527 -0.5961,-1.43986 0.10195,-3.4171 2.1426,-4.2617 1.2187,-0.50506 2.7031,-0.62015 3.7031,-0.31055 v -13 z"
       color="#dfdfdf"
       fill="currentColor"
       fill-opacity="0.6"
       id="path10"
       style="fill-opacity:1;fill:url(#linearGradient859)" />
    <path
       d="M 22,0 V 32 H 54 V 0 Z"
       fill="none"
       id="path12" />
  </g>
</svg>
