<?xml version="1.0" encoding="UTF-8" standalone="no"?>
<svg
   width="32"
   height="32"
   version="1.1"
   viewBox="0 0 32 32"
   id="svg28"
   sodipodi:docname="device.svg"
   inkscape:version="1.1.1 (3bf5ae0d25, 2021-09-20, custom)"
   xmlns:inkscape="http://www.inkscape.org/namespaces/inkscape"
   xmlns:sodipodi="http://sodipodi.sourceforge.net/DTD/sodipodi-0.dtd"
   xmlns:xlink="http://www.w3.org/1999/xlink"
   xmlns="http://www.w3.org/2000/svg"
   xmlns:svg="http://www.w3.org/2000/svg">
  <sodipodi:namedview
     id="namedview30"
     pagecolor="#ffffff"
     bordercolor="#666666"
     borderopacity="1.0"
     inkscape:pageshadow="2"
     inkscape:pageopacity="0.0"
     inkscape:pagecheckerboard="0"
     showgrid="false"
     inkscape:zoom="3.1881315"
     inkscape:cx="43.128711"
     inkscape:cy="45.951681"
     inkscape:window-width="1323"
     inkscape:window-height="744"
     inkscape:window-x="43"
     inkscape:window-y="0"
     inkscape:window-maximized="1"
     inkscape:current-layer="svg28" />
  <defs
     id="defs3">
    <linearGradient
       inkscape:collect="always"
       id="linearGradient870">
      <stop
         style="stop-color:#00423e;stop-opacity:1"
         offset="0"
         id="stop866" />
      <stop
         style="stop-color:#00f1ff;stop-opacity:1"
         offset="1"
         id="stop868" />
    </linearGradient>
    <style
       id="current-color-scheme"
       type="text/css">.ColorScheme-Text { color:#363636; }</style>
    <linearGradient
       inkscape:collect="always"
       xlink:href="#linearGradient870"
       id="linearGradient872"
       x1="322.00003"
       y1="545.3597"
       x2="352.00003"
       y2="545.3597"
       gradientUnits="userSpaceOnUse" />
    <linearGradient
       inkscape:collect="always"
       xlink:href="#linearGradient870"
       id="linearGradient918"
       x1="368"
       y1="545.35999"
       x2="384"
       y2="545.35999"
       gradientUnits="userSpaceOnUse" />
    <linearGradient
       inkscape:collect="always"
       xlink:href="#linearGradient870"
       id="linearGradient926"
       x1="94"
       y1="16"
       x2="106"
       y2="16"
       gradientUnits="userSpaceOnUse" />
  </defs>
  <g
     id="device-notifier"
     class="ColorScheme-Text"
     transform="translate(-321,-529.36)"
     fill="currentColor">
    <path
       d="m 329,533.36 c -1.662,0 -2.6099,1.3844 -3,3 l -3.8613,15.988 c -8.4e-4,0.004 -10e-4,0.008 -0.002,0.0117 h 0.002 c -0.0825,0.321 -0.13867,0.65255 -0.13867,1 0,2.216 1.784,4 4,4 h 22 c 2.216,0 4,-1.784 4,-4 0,-0.34745 -0.0562,-0.679 -0.13867,-1 h 0.0215 l -3.8828,-16 c -0.39187,-1.6151 -1.338,-3 -3,-3 z m -3,18 h 22 c 1.108,0 2,0.89199 2,2 0,1.10801 -0.89199,2 -2,2 h -22 c -1.108,0 -2,-0.89199 -2,-2 0,-1.10801 0.89199,-2 2,-2 z"
       id="path5"
       style="fill-opacity:1;fill:url(#linearGradient872)" />
    <rect
       x="321"
       y="529.35999"
       width="32"
       height="32"
       fill-opacity="0"
       id="rect7" />
    <circle
       cx="346"
       cy="553.35999"
       r="1"
       id="circle9" />
  </g>
  <g
     id="16-16-device-notifier"
     class="ColorScheme-Text"
     transform="translate(-321.5,-529.36)"
     fill="currentColor">
    <rect
       x="393.5"
       y="537.35999"
       width="16"
       height="16"
       ry="0"
       opacity="0"
       id="rect12" />
    <g
       transform="translate(-19.5)"
       id="g20">
      <path
         transform="translate(321,529.36)"
         d="m 97,8 c -0.55399,0 -1,0.44601 -1,1 v 3 c -1.108,0 -2,0.89201 -2,2 v 4 c 0,3.324 2.676,6 6,6 3.324,0 6,-2.676 6,-6 v -4 c 0,-1.108 -0.89201,-2 -2,-2 V 9 c 0,-0.55399 -0.44601,-1 -1,-1 z m 1,1 c 0.55399,0 1,0.44601 1,1 v 1 c 0,0.55399 -0.44601,1 -1,1 -0.55399,0 -1,-0.44601 -1,-1 v -1 c 0,-0.55399 0.44601,-1 1,-1 z m 4,0 c 0.55399,0 1,0.44601 1,1 v 1 c 0,0.55399 -0.44601,1 -1,1 -0.55399,0 -1,-0.44601 -1,-1 v -1 c 0,-0.55399 0.44601,-1 1,-1 z m -6,4 h 8 c 0.55399,0 1,0.44601 1,1 v 4 a 5,5 0 0 1 -5,5 5,5 0 0 1 -5,-5 v -4 c 0,-0.55399 0.44601,-1 1,-1 z"
         id="path14"
         style="fill-opacity:1.0;fill:url(#linearGradient926)" />
      <circle
         cx="421"
         cy="549.35999"
         r="2"
         opacity="0.25"
         id="circle16" />
      <circle
         cx="421"
         cy="549.35999"
         r="1"
         id="circle18" />
    </g>
  </g>
  <g
     id="22-22-device-notifier"
     class="ColorScheme-Text"
     transform="translate(-321,-529.36)"
     fill="currentColor">
    <rect
       x="365"
       y="534.35999"
       width="22"
       height="22"
       opacity="0"
       id="rect23" />
    <path
       d="m 372,536.36 c -0.55401,0 -1,0.446 -1,1 v 4 h -1 c -1.108,0 -2,0.892 -2,2 v 3 c 0,4.4183 3.5817,8 8,8 4.4183,0 8,-3.5817 8,-8 v -3 c 0,-1.108 -0.89199,-2 -2,-2 h -1 v -4 c 0,-0.554 -0.44599,-1 -1,-1 z m 2,2 c 0.554,0 1,0.446 1,1 v 1 c 0,0.554 -0.446,1 -1,1 -0.554,0 -1,-0.446 -1,-1 v -1 c 0,-0.554 0.446,-1 1,-1 z m 4,0 c 0.554,0 1,0.446 1,1 v 1 c 0,0.554 -0.446,1 -1,1 -0.554,0 -1,-0.446 -1,-1 v -1 c 0,-0.554 0.446,-1 1,-1 z m -8,5 h 12 v 3 c 0,3.324 -2.676,6 -6,6 -3.324,0 -6,-2.676 -6,-6 z"
       id="path25"
       style="fill-opacity:1.0;fill:url(#linearGradient918)" />
  </g>
</svg>
