<?xml version="1.0" encoding="UTF-8" standalone="no"?>
<svg
   width="22"
   height="22"
   enable-background="new"
   version="1.1"
   id="svg103"
   sodipodi:docname="disk.svg"
   inkscape:version="1.1.1 (3bf5ae0d25, 2021-09-20, custom)"
   xmlns:inkscape="http://www.inkscape.org/namespaces/inkscape"
   xmlns:sodipodi="http://sodipodi.sourceforge.net/DTD/sodipodi-0.dtd"
   xmlns:xlink="http://www.w3.org/1999/xlink"
   xmlns="http://www.w3.org/2000/svg"
   xmlns:svg="http://www.w3.org/2000/svg"
   xmlns:rdf="http://www.w3.org/1999/02/22-rdf-syntax-ns#"
   xmlns:cc="http://creativecommons.org/ns#"
   xmlns:dc="http://purl.org/dc/elements/1.1/">
  <sodipodi:namedview
     id="namedview105"
     pagecolor="#ffffff"
     bordercolor="#666666"
     borderopacity="1.0"
     inkscape:pageshadow="2"
     inkscape:pageopacity="0.0"
     inkscape:pagecheckerboard="0"
     showgrid="false"
     inkscape:zoom="7.4597662"
     inkscape:cx="136.26432"
     inkscape:cy="42.29355"
     inkscape:window-width="1323"
     inkscape:window-height="744"
     inkscape:window-x="43"
     inkscape:window-y="0"
     inkscape:window-maximized="1"
     inkscape:current-layer="svg103" />
  <metadata
     id="metadata2">
    <rdf:RDF>
      <cc:Work
         rdf:about="">
        <dc:format>image/svg+xml</dc:format>
        <dc:type
           rdf:resource="http://purl.org/dc/dcmitype/StillImage" />
        <dc:title />
      </cc:Work>
    </rdf:RDF>
  </metadata>
  <defs
     id="defs5">
    <linearGradient
       inkscape:collect="always"
       id="linearGradient945">
      <stop
         style="stop-color:#dedede;stop-opacity:1;"
         offset="0"
         id="stop941" />
      <stop
         style="stop-color:#082d37;stop-opacity:1"
         offset="1"
         id="stop943" />
    </linearGradient>
    <style
       id="current-color-scheme"
       type="text/css">.ColorScheme-Text { color:#dedede; } .ColorScheme-Highlight { color:#5294e2; } .ColorScheme-ButtonBackground { color:#dedede; }</style>
    <radialGradient
       inkscape:collect="always"
       xlink:href="#linearGradient945"
       id="radialGradient947"
       cx="11"
       cy="11"
       fx="11"
       fy="11"
       r="7"
       gradientTransform="matrix(1,0,0,1.2857143,0,-3.1428571)"
       gradientUnits="userSpaceOnUse" />
    <radialGradient
       inkscape:collect="always"
       xlink:href="#linearGradient945"
       id="radialGradient995"
       cx="11"
       cy="12"
       fx="11"
       fy="12"
       r="2"
       gradientUnits="userSpaceOnUse" />
    <radialGradient
       inkscape:collect="always"
       xlink:href="#linearGradient945"
       id="radialGradient1005"
       cx="48"
       cy="54"
       fx="48"
       fy="54"
       r="11"
       gradientTransform="matrix(1,0,0,1.2727273,0,-14.727273)"
       gradientUnits="userSpaceOnUse" />
    <radialGradient
       inkscape:collect="always"
       xlink:href="#linearGradient945"
       id="radialGradient1051"
       cx="48"
       cy="57"
       fx="48"
       fy="57"
       r="3"
       gradientUnits="userSpaceOnUse" />
    <radialGradient
       inkscape:collect="always"
       xlink:href="#linearGradient945"
       id="radialGradient1059"
       cx="48"
       cy="54"
       fx="48"
       fy="54"
       r="11"
       gradientTransform="matrix(1,0,0,1.2727273,0,-14.727273)"
       gradientUnits="userSpaceOnUse" />
    <radialGradient
       inkscape:collect="always"
       xlink:href="#linearGradient945"
       id="radialGradient1067"
       cx="11"
       cy="11"
       fx="11"
       fy="11"
       r="7"
       gradientTransform="matrix(1,0,0,1.2857143,0,-3.1428571)"
       gradientUnits="userSpaceOnUse" />
    <radialGradient
       inkscape:collect="always"
       xlink:href="#linearGradient945"
       id="radialGradient1075"
       cx="11"
       cy="11"
       fx="11"
       fy="11"
       r="7"
       gradientTransform="matrix(1,0,0,1.2857143,0,-3.1428571)"
       gradientUnits="userSpaceOnUse" />
    <radialGradient
       inkscape:collect="always"
       xlink:href="#linearGradient945"
       id="radialGradient1083"
       cx="131"
       cy="11"
       fx="131"
       fy="11"
       r="7"
       gradientTransform="matrix(1,0,0,1.2857143,0,-3.1428571)"
       gradientUnits="userSpaceOnUse" />
    <radialGradient
       inkscape:collect="always"
       xlink:href="#linearGradient945"
       id="radialGradient1091"
       cx="48"
       cy="54"
       fx="48"
       fy="54"
       r="11"
       gradientTransform="matrix(1,0,0,1.2727273,0,-14.727273)"
       gradientUnits="userSpaceOnUse" />
    <radialGradient
       inkscape:collect="always"
       xlink:href="#linearGradient945"
       id="radialGradient1121"
       cx="48"
       cy="54"
       fx="48"
       fy="54"
       r="11"
       gradientTransform="matrix(1,0,0,1.2727273,0,-14.727273)"
       gradientUnits="userSpaceOnUse" />
  </defs>
  <g
     id="22-22-disk-quota">
    <path
       d="M 6,2 C 4.892,2 4,2.892 4,4 v 14 c 0,1.108 0.892,2 2,2 h 10 c 1.108,0 2,-0.892 2,-2 V 4 C 18,2.892 17.108,2 16,2 Z M 6,4 H 7 V 6 H 6 Z M 8,4 H 9 V 6 H 8 Z m 2,0 h 1 v 2 h -1 z m 2,0 h 1 v 2 h -1 z m 2,1 h 1 v 1 h -1 z m -3,2 a 5,5 0 0 1 5,5 5,5 0 0 1 -5,5 5,5 0 0 1 -5,-5 5,5 0 0 1 5,-5 z m 5,10 a 1,1 0 0 1 1,1 1,1 0 0 1 -1,1 1,1 0 0 1 -1,-1 1,1 0 0 1 1,-1 z"
       fill="#dedede"
       id="path7"
       style="fill-opacity:1;fill:url(#radialGradient947)" />
    <path
       d="m 11,7 a 5,5 0 0 0 -5,5 5,5 0 0 0 5,5 5,5 0 0 0 5,-5 h -5 z"
       fill="#dedede"
       opacity="0.3"
       id="path9" />
    <path
       d="M 0,0 H 22 V 22 H 0 Z"
       opacity="0"
       id="path11" />
    <g
       fill="#dedede"
       id="g15">
      <circle
         cx="11"
         cy="12"
         r="2"
         id="circle13"
         style="fill-opacity:1.0;fill:url(#radialGradient995)" />
    </g>
  </g>
  <g
     id="22-22-disk-quota-low"
     transform="translate(32)">
    <path
       d="M 6,2 C 4.892,2 4,2.892 4,4 v 14 c 0,1.108 0.892,2 2,2 h 10 c 1.108,0 2,-0.892 2,-2 V 4 C 18,2.892 17.108,2 16,2 Z M 6,4 H 7 V 6 H 6 Z M 8,4 H 9 V 6 H 8 Z m 2,0 h 1 v 2 h -1 z m 2,0 h 1 v 2 h -1 z m 2,1 h 1 v 1 h -1 z m -3,2 a 5,5 0 0 1 5,5 5,5 0 0 1 -5,5 5,5 0 0 1 -5,-5 5,5 0 0 1 5,-5 z m 5,10 a 1,1 0 0 1 1,1 1,1 0 0 1 -1,1 1,1 0 0 1 -1,-1 1,1 0 0 1 1,-1 z"
       fill="#dedede"
       id="path18"
       style="fill-opacity:1.0;fill:url(#radialGradient1067)" />
    <path
       d="m 11,7 a 5,5 0 0 0 -5,5 5,5 0 0 0 5,5 5,5 0 0 0 5,-5 h -5 z"
       fill="#dc6e2e"
       id="path20" />
    <path
       d="M 0,0 H 22 V 22 H 0 Z"
       opacity="0"
       id="path22" />
    <g
       fill="#dedede"
       id="g26">
      <circle
         cx="11"
         cy="12"
         r="2"
         id="circle24" />
    </g>
  </g>
  <g
     id="22-22-disk-quota-high"
     transform="translate(59)">
    <path
       d="M 6,2 C 4.892,2 4,2.892 4,4 v 14 c 0,1.108 0.892,2 2,2 h 10 c 1.108,0 2,-0.892 2,-2 V 4 C 18,2.892 17.108,2 16,2 Z M 6,4 H 7 V 6 H 6 Z M 8,4 H 9 V 6 H 8 Z m 2,0 h 1 v 2 h -1 z m 2,0 h 1 v 2 h -1 z m 2,1 h 1 v 1 h -1 z m -3,2 a 5,5 0 0 1 5,5 5,5 0 0 1 -5,5 5,5 0 0 1 -5,-5 5,5 0 0 1 5,-5 z m 5,10 a 1,1 0 0 1 1,1 1,1 0 0 1 -1,1 1,1 0 0 1 -1,-1 1,1 0 0 1 1,-1 z"
       fill="#dedede"
       id="path29"
       style="fill-opacity:1.0;fill:url(#radialGradient1075)" />
    <path
       d="m 11,7 a 5,5 0 0 0 -5,5 5,5 0 0 0 5,5 5,5 0 0 0 5,-5 h -5 z"
       fill="#eb5555"
       id="path31" />
    <path
       d="M 0,0 H 22 V 22 H 0 Z"
       opacity="0"
       id="path33" />
    <g
       fill="#dedede"
       id="g37">
      <circle
         cx="11"
         cy="12"
         r="2"
         id="circle35" />
    </g>
  </g>
  <g
     id="22-22-disk-quota-critical"
     transform="translate(-34)">
    <path
       d="m 126,2 c -1.108,0 -2,0.892 -2,2 v 14 c 0,1.108 0.892,2 2,2 h 10 c 1.108,0 2,-0.892 2,-2 V 4 c 0,-1.108 -0.892,-2 -2,-2 z m 0,2 h 1 v 2 h -1 z m 2,0 h 1 v 2 h -1 z m 2,0 h 1 v 2 h -1 z m 2,0 h 1 v 2 h -1 z m 2,1 h 1 v 1 h -1 z m -3,2 a 5,5 0 0 1 5,5 5,5 0 0 1 -5,5 5,5 0 0 1 -5,-5 5,5 0 0 1 5,-5 z m 5,10 a 1,1 0 0 1 1,1 1,1 0 0 1 -1,1 1,1 0 0 1 -1,-1 1,1 0 0 1 1,-1 z"
       fill="#dedede"
       id="path40"
       style="fill-opacity:1.0;fill:url(#radialGradient1083)" />
    <path
       d="m 131,7 a 5,5 0 0 0 -5,5 5,5 0 0 0 5,5 5,5 0 0 0 5,-5 h -5 z"
       fill="#eb5555"
       id="path42" />
    <path
       d="m 120,0 h 22 v 22 h -22 z"
       opacity="0"
       id="path44" />
    <g
       transform="translate(120)"
       fill="#dedede"
       id="g48">
      <circle
         cx="11"
         cy="12"
         r="2"
         id="circle46" />
    </g>
    <path
       d="m 139,11 v 5 h 2 v -5 z m 0,6 v 2 h 2 v -2 z"
       fill="#dc6e2e"
       id="path50" />
  </g>
  <g
     id="disk-quota">
    <path
       d="M 0,38 H 32 V 70 H 0 Z"
       opacity="0"
       stroke-width="1.4546"
       id="path53" />
    <g
       transform="translate(-32)"
       fill="#dedede"
       stroke-linecap="square"
       stroke-linejoin="round"
       id="g61">
      <path
         d="m 48,49 a 8,8 0 0 0 -8,8 8,8 0 0 0 8,8 8,8 0 0 0 8,-8 h -8 z"
         opacity="0.35"
         stroke-width="2.1333"
         id="path55" />
      <path
         d="m 40,40 c -1.662,0 -3,1.338 -3,3 v 22 c 0,1.662 1.338,3 3,3 h 16 c 1.662,0 3,-1.338 3,-3 V 43 c 0,-1.662 -1.338,-3 -3,-3 z m 0,3 h 1 v 3 h -1 z m 2,0 h 1 v 3 h -1 z m 2,0 h 1 v 3 h -1 z m 2,0 h 1 v 3 h -1 z m 2,0 h 1 v 3 h -1 z m 3,1 h 1 v 2 h -1 z m -3,5 a 8,8 0 0 1 8,8 8,8 0 0 1 -8,8 8,8 0 0 1 -8,-8 8,8 0 0 1 8,-8 z m 8,15 a 1,1 0 0 1 1,1 1,1 0 0 1 -1,1 1,1 0 0 1 -1,-1 1,1 0 0 1 1,-1 z"
         stroke-width="2"
         id="path57"
         style="fill-opacity:1.0;fill:url(#radialGradient1005)" />
      <circle
         cx="48"
         cy="57"
         r="3"
         stroke-width="0.8"
         id="circle59"
         style="fill-opacity:1.0;fill:url(#radialGradient1051)" />
    </g>
  </g>
  <g
     id="disk-quota-low"
     transform="translate(46)">
    <path
       d="M 0,38 H 32 V 70 H 0 Z"
       opacity="0"
       stroke-width="1.4546"
       id="path64" />
    <g
       transform="translate(-32)"
       stroke-linecap="square"
       stroke-linejoin="round"
       id="g72">
      <path
         d="m 48,49 a 8,8 0 0 0 -8,8 8,8 0 0 0 8,8 8,8 0 0 0 8,-8 h -8 z"
         fill="#dc6e2e"
         stroke-width="2.1333"
         id="path66" />
      <path
         d="m 40,40 c -1.662,0 -3,1.338 -3,3 v 22 c 0,1.662 1.338,3 3,3 h 16 c 1.662,0 3,-1.338 3,-3 V 43 c 0,-1.662 -1.338,-3 -3,-3 z m 0,3 h 1 v 3 h -1 z m 2,0 h 1 v 3 h -1 z m 2,0 h 1 v 3 h -1 z m 2,0 h 1 v 3 h -1 z m 2,0 h 1 v 3 h -1 z m 3,1 h 1 v 2 h -1 z m -3,5 a 8,8 0 0 1 8,8 8,8 0 0 1 -8,8 8,8 0 0 1 -8,-8 8,8 0 0 1 8,-8 z m 8,15 a 1,1 0 0 1 1,1 1,1 0 0 1 -1,1 1,1 0 0 1 -1,-1 1,1 0 0 1 1,-1 z"
         fill="#dedede"
         stroke-width="2"
         id="path68"
         style="fill-opacity:1.0;fill:url(#radialGradient1059)" />
      <circle
         cx="48"
         cy="57"
         r="3"
         fill="#dedede"
         stroke-width="0.8"
         id="circle70" />
    </g>
  </g>
  <g
     id="disk-quota-high"
     transform="translate(94)">
    <path
       d="M 0,38 H 32 V 70 H 0 Z"
       opacity="0"
       stroke-width="1.4546"
       id="path75" />
    <g
       transform="translate(-32)"
       stroke-linecap="square"
       stroke-linejoin="round"
       id="g83">
      <path
         d="m 48,49 a 8,8 0 0 0 -8,8 8,8 0 0 0 8,8 8,8 0 0 0 8,-8 h -8 z"
         fill="#eb5555"
         stroke-width="2.1333"
         id="path77" />
      <path
         d="m 40,40 c -1.662,0 -3,1.338 -3,3 v 22 c 0,1.662 1.338,3 3,3 h 16 c 1.662,0 3,-1.338 3,-3 V 43 c 0,-1.662 -1.338,-3 -3,-3 z m 0,3 h 1 v 3 h -1 z m 2,0 h 1 v 3 h -1 z m 2,0 h 1 v 3 h -1 z m 2,0 h 1 v 3 h -1 z m 2,0 h 1 v 3 h -1 z m 3,1 h 1 v 2 h -1 z m -3,5 a 8,8 0 0 1 8,8 8,8 0 0 1 -8,8 8,8 0 0 1 -8,-8 8,8 0 0 1 8,-8 z m 8,15 a 1,1 0 0 1 1,1 1,1 0 0 1 -1,1 1,1 0 0 1 -1,-1 1,1 0 0 1 1,-1 z"
         fill="#dedede"
         stroke-width="2"
         id="path79"
         style="fill-opacity:1.0;fill:url(#radialGradient1091)" />
      <circle
         cx="48"
         cy="57"
         r="3"
         fill="#dedede"
         stroke-width="0.8"
         id="circle81" />
    </g>
  </g>
  <g
     id="disk-quota-critical">
    <g
       transform="translate(141)"
       id="g96">
      <path
         d="M 0,38 H 32 V 70 H 0 Z"
         opacity="0"
         stroke-width="1.4546"
         id="path86" />
      <g
         transform="translate(-32)"
         stroke-linecap="square"
         stroke-linejoin="round"
         id="g94">
        <path
           d="m 48,49 a 8,8 0 0 0 -8,8 8,8 0 0 0 8,8 8,8 0 0 0 8,-8 h -8 z"
           fill="#eb5555"
           stroke-width="2.1333"
           id="path88" />
        <path
           d="m 40,40 c -1.662,0 -3,1.338 -3,3 v 22 c 0,1.662 1.338,3 3,3 h 16 c 1.662,0 3,-1.338 3,-3 V 43 c 0,-1.662 -1.338,-3 -3,-3 z m 0,3 h 1 v 3 h -1 z m 2,0 h 1 v 3 h -1 z m 2,0 h 1 v 3 h -1 z m 2,0 h 1 v 3 h -1 z m 2,0 h 1 v 3 h -1 z m 3,1 h 1 v 2 h -1 z m -3,5 a 8,8 0 0 1 8,8 8,8 0 0 1 -8,8 8,8 0 0 1 -8,-8 8,8 0 0 1 8,-8 z m 8,15 a 1,1 0 0 1 1,1 1,1 0 0 1 -1,1 1,1 0 0 1 -1,-1 1,1 0 0 1 1,-1 z"
           fill="#dedede"
           stroke-width="2"
           id="path90"
           style="fill-opacity:1.0;fill:url(#radialGradient1121)" />
        <circle
           cx="48"
           cy="57"
           r="3"
           fill="#dedede"
           stroke-width="0.8"
           id="circle92" />
      </g>
    </g>
    <rect
       x="169"
       y="55"
       width="2"
       height="9"
       rx="1"
       ry="1"
       fill="#eb5555"
       stroke-linecap="square"
       stroke-linejoin="round"
       stroke-width="1.6036"
       id="rect98" />
    <circle
       cx="170"
       cy="66"
       r="1"
       fill="#eb5555"
       stroke-linecap="square"
       stroke-linejoin="round"
       stroke-width="2"
       id="circle100" />
  </g>
</svg>
