<?xml version="1.0" encoding="UTF-8" standalone="no"?>
<svg
   id="svg7384"
   width="22"
   height="22"
   version="1.1"
   style="enable-background:new"
   sodipodi:docname="document.svg"
   inkscape:version="1.1.1 (3bf5ae0d25, 2021-09-20, custom)"
   xmlns:inkscape="http://www.inkscape.org/namespaces/inkscape"
   xmlns:sodipodi="http://sodipodi.sourceforge.net/DTD/sodipodi-0.dtd"
   xmlns:xlink="http://www.w3.org/1999/xlink"
   xmlns="http://www.w3.org/2000/svg"
   xmlns:svg="http://www.w3.org/2000/svg">
  <sodipodi:namedview
     id="namedview26"
     pagecolor="#ffffff"
     bordercolor="#666666"
     borderopacity="1.0"
     inkscape:pageshadow="2"
     inkscape:pageopacity="0.0"
     inkscape:pagecheckerboard="0"
     showgrid="false"
     inkscape:zoom="4.731202"
     inkscape:cx="22.510136"
     inkscape:cy="16.803341"
     inkscape:window-width="1323"
     inkscape:window-height="744"
     inkscape:window-x="43"
     inkscape:window-y="0"
     inkscape:window-maximized="1"
     inkscape:current-layer="svg7384" />
  <defs
     id="defs7386">
    <linearGradient
       inkscape:collect="always"
       id="linearGradient976">
      <stop
         style="stop-color:#00ffff;stop-opacity:1;"
         offset="0"
         id="stop972" />
      <stop
         style="stop-color:#008080;stop-opacity:1"
         offset="1"
         id="stop974" />
    </linearGradient>
    <linearGradient
       inkscape:collect="always"
       id="linearGradient885">
      <stop
         style="stop-color:#ffff00;stop-opacity:1;"
         offset="0"
         id="stop881" />
      <stop
         style="stop-color:#bb9f25;stop-opacity:1"
         offset="1"
         id="stop883" />
    </linearGradient>
    <style
       id="current-color-scheme"
       type="text/css">
   .ColorScheme-Text { color:#d3dae3; } .ColorScheme-Highlight { color:#5294e2; } .ColorScheme-ButtonBackground { color:#d3dae3; }
  </style>
    <linearGradient
       inkscape:collect="always"
       xlink:href="#linearGradient885"
       id="linearGradient887"
       x1="350.99759"
       y1="-246.00336"
       x2="364.99759"
       y2="-246.00336"
       gradientUnits="userSpaceOnUse" />
    <linearGradient
       inkscape:collect="always"
       xlink:href="#linearGradient885"
       id="linearGradient933"
       x1="26"
       y1="10.999999"
       x2="40"
       y2="10.999999"
       gradientUnits="userSpaceOnUse" />
    <linearGradient
       inkscape:collect="always"
       xlink:href="#linearGradient885"
       id="linearGradient941"
       x1="349.00021"
       y1="-243"
       x2="361.00021"
       y2="-243"
       gradientUnits="userSpaceOnUse" />
    <linearGradient
       inkscape:collect="always"
       xlink:href="#linearGradient885"
       id="linearGradient951"
       x1="367.00021"
       y1="-243"
       x2="379.00021"
       y2="-243"
       gradientUnits="userSpaceOnUse" />
    <radialGradient
       inkscape:collect="always"
       xlink:href="#linearGradient976"
       id="radialGradient1018"
       cx="62"
       cy="6.0004472"
       fx="62"
       fy="6.0004472"
       r="14.000896"
       gradientTransform="matrix(1,0,0,0.99996795,0,1.9232346e-4)"
       gradientUnits="userSpaceOnUse" />
    <radialGradient
       inkscape:collect="always"
       xlink:href="#linearGradient976"
       id="radialGradient1026"
       cx="393.99759"
       cy="-222.00336"
       fx="393.99759"
       fy="-222.00336"
       r="9"
       gradientUnits="userSpaceOnUse" />
  </defs>
  <g
     id="document-encrypt"
     transform="translate(-346.99759,257.00336)">
    <rect
       id="rect4192"
       width="22"
       height="22"
       x="347"
       y="-257"
       style="opacity:0;fill:#2b0000;fill-opacity:0.403922;fill-rule:nonzero;stroke:none;stroke-width:1;stroke-linecap:round;stroke-linejoin:round;stroke-miterlimit:4;stroke-dasharray:none;stroke-dashoffset:0;stroke-opacity:1" />
    <path
       id="path5975"
       class="ColorScheme-Text"
       d="m 357.99758,-254.00336 c -5.00262,-0.003 -4.99999,4.64286 -4.99999,4.64286 v 2.35714 h -0.83333 c -0.64633,0 -1.16667,0.36686 -1.16667,1 v 6.85714 c 0,0.63315 0.52034,1.14286 1.16667,1.14286 h 11.66666 c 0.64633,0 1.16667,-0.50971 1.16667,-1.14286 v -6.85714 c 0,-0.63314 -0.52963,-0.89079 -1.16667,-1 h -0.83333 v -2.35714 c 0,0 0.003,-4.6395 -5.00001,-4.64286 z m 0,3 c 2.00262,-0.003 2.00001,1.57143 2.00001,1.57143 v 2.42857 h -4 v -2.42857 c 0,0 0.003,-1.56807 1.99999,-1.57143 z"
       style="fill:url(#linearGradient887);fill-opacity:1" />
  </g>
  <g
     id="document-open-recent"
     transform="translate(-347.99759,257.00336)">
    <rect
       id="rect4212"
       width="32"
       height="32"
       x="394"
       y="-267"
       style="opacity:0;fill:#2b0000;fill-opacity:0.403922;fill-rule:nonzero;stroke:none;stroke-width:1;stroke-linecap:round;stroke-linejoin:round;stroke-miterlimit:4;stroke-dasharray:none;stroke-dashoffset:0;stroke-opacity:1" />
    <g
       id="layer12-8"
       transform="matrix(2,0,0,2,-136.00281,-191.00335)"
       style="display:inline">
      <path
         id="path6485"
         class="ColorScheme-Text"
         d="m 62,-8 c -3.58291,-5e-7 -7.166721,1.3659394 -9.900391,4.0996094 -5.46734,5.467338 -5.46734,14.3334476 0,19.8007816 5.46732,5.467336 14.333442,5.46734 19.800782,0 5.46734,-5.467338 5.46734,-14.3334476 0,-19.8007816 C 69.166721,-6.6340586 65.58291,-7.9999995 62,-8 Z m -0.146484,4.0019531 a 10,10 0 0 1 7.216796,2.9277344 10,10 0 0 1 0,14.1406245 10,10 0 0 1 -14.140624,0 10,10 0 0 1 0,-14.1406245 10,10 0 0 1 6.923828,-2.9277344 z M 60,-2 V -1.734375 0 6.828125 l 3.414062,3.414063 1.228516,1.230468 0.185547,0.183594 1.414063,-1.414062 1.414062,-1.414063 -0.1875,-0.1875 L 66.242188,7.4140625 64,5.171875 V 0 -1.734375 -2 Z"
         transform="matrix(0.5,0,0,0.5,242.0002,-33.000005)"
         style="display:inline;opacity:1;fill:url(#radialGradient1018);fill-opacity:1;stroke:none;enable-background:new" />
    </g>
  </g>
  <g
     id="22-22-document-open-recent"
     transform="translate(-303.99759,233.00336)">
    <rect
       id="rect4214"
       width="22"
       height="22"
       x="383"
       y="-233"
       style="opacity:0;fill:#2b0000;fill-opacity:0.403922;fill-rule:nonzero;stroke:none;stroke-width:1;stroke-linecap:round;stroke-linejoin:round;stroke-miterlimit:4;stroke-dasharray:none;stroke-dashoffset:0;stroke-opacity:1" />
    <path
       id="path4216"
       class="ColorScheme-Text"
       d="m 393.99759,-231.00336 a 9,9 0 0 0 -9,9 9,9 0 0 0 9,9 9,9 0 0 0 9,-9 9,9 0 0 0 -9,-9 z m 0,3 a 6,6 0 0 1 6,6 6,6 0 0 1 -6,6 6,6 0 0 1 -6,-6 6,6 0 0 1 6,-6 z m -1,1 v 6 h 0.082 v 0.0117 l 3.45312,3.45313 1.41407,-1.41407 -2.94922,-2.95117 v -5.09961 h -2 z"
       style="opacity:1;fill:url(#radialGradient1026);fill-opacity:1.0;fill-rule:nonzero;stroke:none;stroke-width:1;stroke-linecap:round;stroke-linejoin:round;stroke-miterlimit:4;stroke-dasharray:none;stroke-dashoffset:0;stroke-opacity:1" />
  </g>
  <g
     id="document-decrypt"
     transform="translate(-345.99759,257.00336)">
    <rect
       id="rect4194"
       width="22"
       height="22"
       x="369"
       y="-257"
       style="opacity:0;fill:#2b0000;fill-opacity:0.403922;fill-rule:nonzero;stroke:none;stroke-width:1;stroke-linecap:round;stroke-linejoin:round;stroke-miterlimit:4;stroke-dasharray:none;stroke-dashoffset:0;stroke-opacity:1" />
    <path
       id="path4189"
       class="ColorScheme-Text"
       d="M 33,3 C 29.103336,2.99766 28.2581,5.7538008 28.068359,7 h 3.074219 C 31.339714,6.5508956 31.816143,6.0019919 33,6 35.00262,5.997 35,7.5722656 35,7.5722656 V 10 H 32 31 28 27.166016 C 26.519686,10 26,10.36686 26,11 v 6.857422 C 26,18.490572 26.519686,19 27.166016,19 H 38.833984 C 39.480314,19 40,18.490572 40,17.857422 V 11 c 0,-0.63314 -0.528976,-0.89079 -1.166016,-1 H 38 V 7.6425781 C 38,7.6425781 38.003,3.00336 33,3 Z"
       transform="translate(346.99759,-257.00336)"
       style="fill:url(#linearGradient933);fill-opacity:1.0" />
  </g>
  <g
     id="16-16-document-encrypt"
     transform="translate(-346.99759,257.00336)">
    <rect
       id="rect4258"
       width="16"
       height="16"
       x="350"
       y="-286"
       style="opacity:0;fill:#ff7dff;fill-opacity:1;stroke:none;stroke-opacity:1" />
    <g
       id="layer9-4"
       transform="translate(2.99739,-35.00336)"
       style="display:inline">
      <path
         id="path5975-5"
         class="ColorScheme-Text"
         d="m 355.0002,-250 c -2.216,0 -4,1.82162 -4,4.0625 V -244 h -1 c -0.554,0 -1,0.446 -1,1 v 6 c 0,0.554 0.446,1 1,1 h 10 c 0.554,0 1,-0.446 1,-1 v -6 c 0,-0.554 -0.446,-1 -1,-1 h -1 v -1.9375 c 0,-2.24 -1.784,-4.0625 -4,-4.0625 z m 0,2 c 1.108,0 2,0.892 2,2 v 2 h -4 v -2 c 0,-1.108 0.892,-2 2,-2 z"
         style="fill:url(#linearGradient941);fill-opacity:1.0" />
    </g>
  </g>
  <g
     id="16-16-document-decrypt"
     transform="translate(-346.99759,257.00336)">
    <rect
       id="rect4260"
       width="16"
       height="16"
       x="370"
       y="-286"
       style="opacity:0;fill:#ff7dff;fill-opacity:1;stroke:none;stroke-opacity:1" />
    <g
       id="layer9-9"
       transform="translate(4.99739,-35.00336)"
       style="display:inline">
      <path
         id="path6354"
         class="ColorScheme-Text"
         d="m 373.0002,-251 c -2.19497,0 -3.96658,1.78839 -4,4 v 1 h 1 1 v -1 c 0,-1.108 0.892,-2 2,-2 1.108,0 2,0.892 2,2 v 4 h -2 -3 -1 -1 c -0.554,0 -1,0.446 -1,1 v 6 c 0,0.554 0.446,1 1,1 h 10 c 0.554,0 1,-0.446 1,-1 v -6 c 0,-0.554 -0.446,-1 -1,-1 h -1 v -3.9375 c 0,-2.24 -1.784,-4.0625 -4,-4.0625 z"
         style="fill:url(#linearGradient951);fill-opacity:1.0" />
    </g>
  </g>
</svg>
