<?xml version="1.0" encoding="UTF-8" standalone="no"?>
<svg
   width="22"
   height="22"
   version="1.1"
   id="svg28"
   sodipodi:docname="drive.svg"
   inkscape:version="1.1.1 (3bf5ae0d25, 2021-09-20, custom)"
   xmlns:inkscape="http://www.inkscape.org/namespaces/inkscape"
   xmlns:sodipodi="http://sodipodi.sourceforge.net/DTD/sodipodi-0.dtd"
   xmlns:xlink="http://www.w3.org/1999/xlink"
   xmlns="http://www.w3.org/2000/svg"
   xmlns:svg="http://www.w3.org/2000/svg">
  <sodipodi:namedview
     id="namedview30"
     pagecolor="#ffffff"
     bordercolor="#666666"
     borderopacity="1.0"
     inkscape:pageshadow="2"
     inkscape:pageopacity="0.0"
     inkscape:pagecheckerboard="0"
     showgrid="false"
     inkscape:zoom="2.974578"
     inkscape:cx="33.450123"
     inkscape:cy="22.01993"
     inkscape:window-width="1323"
     inkscape:window-height="744"
     inkscape:window-x="43"
     inkscape:window-y="0"
     inkscape:window-maximized="1"
     inkscape:current-layer="svg28" />
  <defs
     id="defs3">
    <linearGradient
       inkscape:collect="always"
       id="linearGradient870">
      <stop
         style="stop-color:#dedede;stop-opacity:1;"
         offset="0"
         id="stop866" />
      <stop
         style="stop-color:#888888;stop-opacity:1"
         offset="1"
         id="stop868" />
    </linearGradient>
    <style
       id="current-color-scheme"
       type="text/css">.ColorScheme-Text { color:#dedede; } .ColorScheme-Highlight { color:#5294e2; } .ColorScheme-ButtonBackground { color:#dedede; }</style>
    <radialGradient
       inkscape:collect="always"
       xlink:href="#linearGradient870"
       id="radialGradient872"
       cx="-12"
       cy="14"
       fx="-12"
       fy="14"
       r="6"
       gradientTransform="matrix(1,0,0,1.1666667,0,-2.3333333)"
       gradientUnits="userSpaceOnUse" />
    <radialGradient
       inkscape:collect="always"
       xlink:href="#linearGradient870"
       id="radialGradient956"
       cx="11"
       cy="11"
       fx="11"
       fy="11"
       r="7"
       gradientTransform="matrix(1,0,0,1.2857143,0,-3.1428571)"
       gradientUnits="userSpaceOnUse" />
    <radialGradient
       inkscape:collect="always"
       xlink:href="#linearGradient870"
       id="radialGradient964"
       cx="48"
       cy="54"
       fx="48"
       fy="54"
       r="11"
       gradientTransform="matrix(1,0,0,1.2727273,0,-14.727273)"
       gradientUnits="userSpaceOnUse" />
  </defs>
  <g
     id="16-16-drive-harddisk">
    <rect
       x="-20"
       y="6"
       width="16"
       height="16"
       ry="0"
       opacity="0"
       id="rect5" />
    <path
       class="ColorScheme-Text"
       d="m -17,7 c -1,0 -1,1 -1,1 v 12 c 0,0 0,1 1,1 h 10 c 0,0 1,0 1,-1 V 8 c 0,0 0,-1 -1,-1 z m 5,2 c 2.2091,0 4,1.7909 4,4 0,2.2091 -1.7909,4 -4,4 h -4 v -4 c 0,-2.2091 1.7909,-4 4,-4 z m 0,2 c -1.1046,0 -2,0.89543 -2,2 0,1.10457 0.89543,2 2,2 1.10457,0 2,-0.89543 2,-2 0,-1.10457 -0.89543,-2 -2,-2 z"
       fill="currentColor"
       id="path7"
       style="fill-opacity:1;fill:url(#radialGradient872)" />
  </g>
  <g
     id="22-22-drive-harddisk">
    <path
       d="M 6,2 C 4.892,2 4,2.892 4,4 v 14 c 0,1.108 0.892,2 2,2 h 10 c 1.108,0 2,-0.892 2,-2 V 4 C 18,2.892 17.108,2 16,2 Z M 6,4 H 7 V 6 H 6 Z M 8,4 H 9 V 6 H 8 Z m 2,0 h 1 v 2 h -1 z m 2,0 h 1 v 2 h -1 z m 2,1 h 1 v 1 h -1 z m -3,2 a 5,5 0 0 1 5,5 5,5 0 0 1 -5,5 5,5 0 0 1 -5,-5 5,5 0 0 1 5,-5 z m 5,10 a 1,1 0 0 1 1,1 1,1 0 0 1 -1,1 1,1 0 0 1 -1,-1 1,1 0 0 1 1,-1 z"
       fill="#dedede"
       id="path10"
       style="fill-opacity:1.0;fill:url(#radialGradient956)" />
    <path
       d="M 0,0 H 22 V 22 H 0 Z"
       opacity="0"
       id="path12" />
    <g
       fill="#dedede"
       id="g16">
      <circle
         cx="11"
         cy="12"
         r="2"
         id="circle14" />
    </g>
  </g>
  <g
     id="drive-harddisk"
     transform="translate(33.119,-40.05)">
    <path
       d="M 0,38 H 32 V 70 H 0 Z"
       opacity="0"
       stroke-width="1.4546"
       id="path19" />
    <g
       transform="translate(-32)"
       fill="#dedede"
       stroke-linecap="square"
       stroke-linejoin="round"
       id="g25">
      <path
         d="m 40,40 c -1.662,0 -3,1.338 -3,3 v 22 c 0,1.662 1.338,3 3,3 h 16 c 1.662,0 3,-1.338 3,-3 V 43 c 0,-1.662 -1.338,-3 -3,-3 z m 0,3 h 1 v 3 h -1 z m 2,0 h 1 v 3 h -1 z m 2,0 h 1 v 3 h -1 z m 2,0 h 1 v 3 h -1 z m 2,0 h 1 v 3 h -1 z m 3,1 h 1 v 2 h -1 z m -3,5 a 8,8 0 0 1 8,8 8,8 0 0 1 -8,8 8,8 0 0 1 -8,-8 8,8 0 0 1 8,-8 z m 8,15 a 1,1 0 0 1 1,1 1,1 0 0 1 -1,1 1,1 0 0 1 -1,-1 1,1 0 0 1 1,-1 z"
         stroke-width="2"
         id="path21"
         style="fill-opacity:1.0;fill:url(#radialGradient964)" />
      <circle
         cx="48"
         cy="57"
         r="3"
         stroke-width="0.8"
         id="circle23" />
    </g>
  </g>
</svg>
