<?xml version="1.0" encoding="UTF-8" standalone="no"?>
<svg
   id="svg19"
   viewBox="0 0 32 32"
   version="1.1"
   sodipodi:docname="kate.svg"
   inkscape:version="1.1.1 (3bf5ae0d25, 2021-09-20, custom)"
   xmlns:inkscape="http://www.inkscape.org/namespaces/inkscape"
   xmlns:sodipodi="http://sodipodi.sourceforge.net/DTD/sodipodi-0.dtd"
   xmlns:xlink="http://www.w3.org/1999/xlink"
   xmlns="http://www.w3.org/2000/svg"
   xmlns:svg="http://www.w3.org/2000/svg"
   xmlns:rdf="http://www.w3.org/1999/02/22-rdf-syntax-ns#"
   xmlns:cc="http://creativecommons.org/ns#"
   xmlns:dc="http://purl.org/dc/elements/1.1/">
  <sodipodi:namedview
     id="namedview13"
     pagecolor="#ffffff"
     bordercolor="#666666"
     borderopacity="1.0"
     inkscape:pageshadow="2"
     inkscape:pageopacity="0.0"
     inkscape:pagecheckerboard="0"
     showgrid="false"
     inkscape:zoom="9.3365815"
     inkscape:cx="41.610519"
     inkscape:cy="12.370695"
     inkscape:window-width="1323"
     inkscape:window-height="744"
     inkscape:window-x="43"
     inkscape:window-y="0"
     inkscape:window-maximized="1"
     inkscape:current-layer="svg19" />
  <metadata
     id="metadata21">
    <rdf:RDF>
      <cc:Work
         rdf:about="">
        <dc:format>image/svg+xml</dc:format>
        <dc:type
           rdf:resource="http://purl.org/dc/dcmitype/StillImage" />
        <dc:title />
      </cc:Work>
    </rdf:RDF>
  </metadata>
  <defs
     id="defs5">
    <linearGradient
       inkscape:collect="always"
       id="linearGradient880">
      <stop
         style="stop-color:#00ffff;stop-opacity:1;"
         offset="0"
         id="stop876" />
      <stop
         style="stop-color:#16aeed;stop-opacity:1"
         offset="1"
         id="stop878" />
    </linearGradient>
    <style
       type="text/css"
       id="current-color-scheme"> .ColorScheme-Text { color:#363636; } </style>
    <linearGradient
       inkscape:collect="always"
       xlink:href="#linearGradient880"
       id="linearGradient882"
       x1="8.4331"
       y1="16.680498"
       x2="24.46304"
       y2="16.680498"
       gradientUnits="userSpaceOnUse" />
    <linearGradient
       inkscape:collect="always"
       xlink:href="#linearGradient880"
       id="linearGradient890"
       x1="2"
       y1="16"
       x2="30"
       y2="16"
       gradientUnits="userSpaceOnUse" />
    <linearGradient
       inkscape:collect="always"
       xlink:href="#linearGradient880"
       id="linearGradient898"
       x1="51.9851"
       y1="15.999998"
       x2="68.015038"
       y2="15.999998"
       gradientUnits="userSpaceOnUse" />
  </defs>
  <g
     fill="currentColor"
     class="ColorScheme-Text"
     id="22-22-kate">
    <path
       id="path7"
       fill="none"
       d="M 49,5 H 71 V 27 H 49 Z" />
    <path
       id="path9"
       d="m 59.098,7.004 c -1.3134,0.043481 -2.7956,0.45116 -4.2359,1.4945 -1.4953,1.0832 -2.1517,1.3791 -2.877,1.7392 0.64623,0.04931 4.5128,-0.50253 5.1969,1.7687 0.03186,-0.0098 0.16724,-0.04853 0.21224,-0.06191 -2.7813,0.77408 -4.3328,2.554 -3.157,5.0259 1.18,2.4809 3.2189,2.5402 5.7363,4.2241 1.9653,1.3146 2.4461,1.9834 3.7142,3.8055 -0.26371,-2.5177 -1.4821,-5.7628 -2.0516,-7.1925 2.1987,1.3151 3.3134,1.6097 6.3789,1.9308 -3.978,-2.8317 -4.7328,-3.3857 -7.0098,-5.3266 -1.5276,0.07701 -1.3601,0.06329 -2.2609,0.11496 1.1859,1.6735 1.6553,4.1327 -0.51291,4.5838 -2.0295,0.42222 -3.9876,-1.3308 -3.4312,-3.2072 0.60416,-2.0375 3.2127,-1.6451 5.9486,-1.9986 2.7358,-0.35344 5.2351,-3.037 6.7386,-5.023 -2.1468,0.73248 -4.9009,1.5683 -7.9353,2.4378 -0.61458,-1.2 -1.401,-3.4673 2.7679,-3.6257 -0.76362,-0.41434 -1.9085,-0.73326 -3.2219,-0.68977 z"
       style="fill-opacity:1.0;fill:url(#linearGradient898)" />
  </g>
  <g
     fill="currentColor"
     class="ColorScheme-Text"
     id="kate">
    <rect
       id="rect12"
       fill="none"
       height="32"
       width="32"
       y="-1e-06"
       x="-2.8954e-08" />
    <path
       id="path14"
       d="m 15.546,7.6845 c -1.3134,0.04348 -2.7956,0.45116 -4.2359,1.4945 -1.4953,1.0832 -2.1517,1.3791 -2.877,1.7392 0.64623,0.04931 4.5128,-0.50253 5.1969,1.7687 0.03186,-0.0098 0.16724,-0.04853 0.21224,-0.06191 -2.7813,0.77408 -4.3328,2.554 -3.157,5.0259 1.18,2.4809 3.2189,2.5402 5.7363,4.2241 1.9653,1.3146 2.4461,1.9834 3.7142,3.8055 -0.26371,-2.5177 -1.4821,-5.7628 -2.0516,-7.1925 2.1987,1.3151 3.3134,1.6097 6.3789,1.9308 -3.978,-2.8317 -4.7328,-3.3857 -7.0098,-5.3266 -1.5276,0.07701 -1.3601,0.06329 -2.2609,0.11496 1.1859,1.6735 1.6553,4.1327 -0.51291,4.5838 -2.0295,0.42222 -3.9876,-1.3308 -3.4312,-3.2072 0.60416,-2.0375 3.2127,-1.6451 5.9486,-1.9986 2.7358,-0.35344 5.2351,-3.037 6.7386,-5.023 -2.1468,0.73248 -4.9009,1.5683 -7.9353,2.4378 -0.61458,-1.2 -1.401,-3.4673 2.7679,-3.6257 -0.76362,-0.41434 -1.9085,-0.73326 -3.2219,-0.68977 z"
       style="fill-opacity:1;fill:url(#linearGradient882)" />
    <path
       id="path16"
       d="M 16,2 A 14,14 0 0 0 2,16 14,14 0 0 0 16,30 14,14 0 0 0 30,16 14,14 0 0 0 16,2 Z m 0,2 A 12,12 0 0 1 28,16 12,12 0 0 1 16,28 12,12 0 0 1 4,16 12,12 0 0 1 16,4 Z"
       style="fill-opacity:1.0;fill:url(#linearGradient890)" />
  </g>
</svg>
