<?xml version="1.0" encoding="UTF-8" standalone="no"?>
<svg
   id="svg30"
   viewBox="0 0 32 32"
   version="1.1"
   sodipodi:docname="kdeconnect.svg"
   inkscape:version="1.1.1 (3bf5ae0d25, 2021-09-20, custom)"
   xmlns:inkscape="http://www.inkscape.org/namespaces/inkscape"
   xmlns:sodipodi="http://sodipodi.sourceforge.net/DTD/sodipodi-0.dtd"
   xmlns:xlink="http://www.w3.org/1999/xlink"
   xmlns="http://www.w3.org/2000/svg"
   xmlns:svg="http://www.w3.org/2000/svg"
   xmlns:rdf="http://www.w3.org/1999/02/22-rdf-syntax-ns#"
   xmlns:cc="http://creativecommons.org/ns#"
   xmlns:dc="http://purl.org/dc/elements/1.1/">
  <sodipodi:namedview
     id="namedview20"
     pagecolor="#ffffff"
     bordercolor="#666666"
     borderopacity="1.0"
     inkscape:pageshadow="2"
     inkscape:pageopacity="0.0"
     inkscape:pagecheckerboard="0"
     showgrid="false"
     inkscape:zoom="13.22196"
     inkscape:cx="29.685462"
     inkscape:cy="21.81976"
     inkscape:window-width="1323"
     inkscape:window-height="744"
     inkscape:window-x="43"
     inkscape:window-y="0"
     inkscape:window-maximized="1"
     inkscape:current-layer="svg30" />
  <metadata
     id="metadata34">
    <rdf:RDF>
      <cc:Work
         rdf:about="">
        <dc:format>image/svg+xml</dc:format>
        <dc:type
           rdf:resource="http://purl.org/dc/dcmitype/StillImage" />
        <dc:title />
      </cc:Work>
    </rdf:RDF>
  </metadata>
  <defs
     id="defs3">
    <linearGradient
       inkscape:collect="always"
       id="linearGradient879">
      <stop
         style="stop-color:#66ff00;stop-opacity:1;"
         offset="0"
         id="stop875" />
      <stop
         style="stop-color:#71c837;stop-opacity:1"
         offset="1"
         id="stop877" />
    </linearGradient>
    <style
       type="text/css"
       id="current-color-scheme">.ColorScheme-Text { color:#363636; }</style>
    <linearGradient
       inkscape:collect="always"
       xlink:href="#linearGradient879"
       id="linearGradient881"
       x1="307"
       y1="545.36"
       x2="316.99998"
       y2="545.36"
       gradientUnits="userSpaceOnUse" />
    <linearGradient
       inkscape:collect="always"
       xlink:href="#linearGradient879"
       id="linearGradient889"
       x1="8"
       y1="16"
       x2="24"
       y2="16"
       gradientUnits="userSpaceOnUse" />
    <linearGradient
       inkscape:collect="always"
       xlink:href="#linearGradient879"
       id="linearGradient897"
       x1="333.00003"
       y1="545.35999"
       x2="340.99997"
       y2="545.35999"
       gradientUnits="userSpaceOnUse" />
    <linearGradient
       inkscape:collect="always"
       xlink:href="#linearGradient879"
       id="linearGradient905"
       x1="359"
       y1="545.35999"
       x2="373"
       y2="545.35999"
       gradientUnits="userSpaceOnUse" />
    <linearGradient
       inkscape:collect="always"
       xlink:href="#linearGradient879"
       id="linearGradient913"
       x1="362.00003"
       y1="545.35999"
       x2="369.99997"
       y2="545.35999"
       gradientUnits="userSpaceOnUse" />
  </defs>
  <g
     fill="currentColor"
     class="ColorScheme-Text"
     transform="translate(-321,-529.36)"
     id="16-16-kdeconnect">
    <path
       id="path5"
       d="m 308,539.36 c -0.554,0 -1,0.446 -1,1 v 10 c 0,0.554 0.446,1 1,1 h 1 v -2 h -1 v -7 h 6 v 1 h 1 v -3 c 0,-0.554 -0.446,-1 -1,-1 z m 2,1 h 2 v 1 h -2 z m 2.5,3 -0.27734,1.1074 a 3,3 0 0 0 -0.72071,0.29688 l -0.97656,-0.58594 -0.70703,0.70703 0.58594,0.97656 a 3,3 0 0 0 -0.30078,0.72266 l -1.1035,0.27539 v 1 l 1.1074,0.27734 a 3,3 0 0 0 0.29688,0.72071 l -0.58594,0.97656 0.70703,0.70703 0.97656,-0.58594 a 3,3 0 0 0 0.72266,0.30078 l 0.27539,1.1035 h 1 l 0.27734,-1.1074 a 3,3 0 0 0 0.72071,-0.29688 l 0.97656,0.58594 0.70703,-0.70703 -0.58594,-0.97656 a 3,3 0 0 0 0.30078,-0.72266 l 1.1035,-0.27539 v -1 l -1.1074,-0.27734 a 3,3 0 0 0 -0.29688,-0.72071 l 0.58594,-0.97656 -0.70703,-0.70703 -0.97656,0.58594 a 3,3 0 0 0 -0.72266,-0.30078 L 313.5,543.36 Z m 0.5,2 a 2,2 0 0 1 0.19922,0.01 2,2 0 0 1 0.19726,0.0293 2,2 0 0 1 0.19532,0.0508 2,2 0 0 1 0.1875,0.0684 2,2 0 0 1 0.17968,0.0859 2,2 0 0 1 0.16993,0.10547 2,2 0 0 1 0.16015,0.12109 2,2 0 0 1 0.14649,0.13672 2,2 0 0 1 0.13086,0.14844 2,2 0 0 1 0.11718,0.16406 2,2 0 0 1 0.0996,0.17383 2,2 0 0 1 0.0801,0.18164 2,2 0 0 1 0.0645,0.18945 2,2 0 0 1 0.043,0.19531 2,2 0 0 1 0.0234,0.19922 2,2 0 0 1 0.006,0.14059 2,2 0 0 1 -0.01,0.19922 2,2 0 0 1 -0.0293,0.19726 2,2 0 0 1 -0.0508,0.19532 2,2 0 0 1 -0.0684,0.1875 2,2 0 0 1 -0.0859,0.17968 2,2 0 0 1 -0.10547,0.16993 2,2 0 0 1 -0.1211,0.16015 2,2 0 0 1 -0.13672,0.14649 2,2 0 0 1 -0.14843,0.13086 2,2 0 0 1 -0.16407,0.11718 2,2 0 0 1 -0.17382,0.0996 2,2 0 0 1 -0.18164,0.0801 2,2 0 0 1 -0.18946,0.0644 2,2 0 0 1 -0.19531,0.043 2,2 0 0 1 -0.19922,0.0234 2,2 0 0 1 -0.084,0.01 h -0.13672 a 2,2 0 0 1 -0.11914,-0.01 2,2 0 0 1 -0.19727,-0.0293 2,2 0 0 1 -0.19531,-0.0508 2,2 0 0 1 -0.1875,-0.0684 2,2 0 0 1 -0.17969,-0.0859 2,2 0 0 1 -0.16992,-0.10546 2,2 0 0 1 -0.16016,-0.1211 2,2 0 0 1 -0.0879,-0.082 l -0.0879,-0.0879 a 2,2 0 0 1 -0.10156,-0.11523 2,2 0 0 1 -0.11719,-0.16407 2,2 0 0 1 -0.0996,-0.17382 2,2 0 0 1 -0.0801,-0.18164 2,2 0 0 1 -0.0645,-0.18946 2,2 0 0 1 -0.043,-0.19531 2,2 0 0 1 -0.0234,-0.19922 2,2 0 0 1 -0.006,-0.14062 2,2 0 0 1 0.01,-0.19922 2,2 0 0 1 0.0293,-0.19727 2,2 0 0 1 0.0508,-0.19531 2,2 0 0 1 0.0684,-0.1875 2,2 0 0 1 0.0859,-0.17969 2,2 0 0 1 0.10547,-0.16992 2,2 0 0 1 0.1211,-0.16016 2,2 0 0 1 0.13672,-0.14648 2,2 0 0 1 0.14843,-0.13086 2,2 0 0 1 0.16407,-0.11719 2,2 0 0 1 0.17382,-0.0996 2,2 0 0 1 0.18164,-0.0801 2,2 0 0 1 0.18946,-0.0644 2,2 0 0 1 0.19531,-0.043 2,2 0 0 1 0.19922,-0.0234 2,2 0 0 1 0.14062,-0.01 z"
       fill="currentColor"
       class="ColorScheme-Text"
       style="fill:url(#linearGradient881);fill-opacity:1" />
    <rect
       id="rect7"
       fill="none"
       height="16"
       width="16"
       y="537.35999"
       x="303" />
  </g>
  <g
     fill="currentColor"
     class="ColorScheme-Text"
     transform="translate(-321,-529.36)"
     id="22-22-kdeconnect">
    <rect
       id="rect10"
       fill="none"
       height="22"
       width="22"
       y="534.35999"
       x="355" />
    <rect
       id="rect12"
       opacity="0.5"
       ry="0.49996999"
       height="0.99993998"
       width="6"
       y="552.35999"
       x="363"
       style="fill:#44aa00" />
    <path
       id="path14"
       fill="currentColor"
       d="m 365.5,541.36 -0.27734,1.1074 c -0.25213,0.0672 -0.49441,0.167 -0.72071,0.29688 l -0.97656,-0.58594 -0.70703,0.70703 0.58594,0.97656 c -0.13139,0.22672 -0.23251,0.46967 -0.30078,0.72266 l -1.1035,0.27539 v 1 l 1.1074,0.27734 c 0.0672,0.25213 0.167,0.49441 0.29688,0.72071 l -0.58594,0.97656 0.70703,0.70703 0.97656,-0.58594 c 0.22672,0.13139 0.46967,0.23251 0.72266,0.30078 l 0.27539,1.1035 h 1 l 0.27734,-1.1074 c 0.25213,-0.0672 0.49441,-0.167 0.72071,-0.29688 l 0.97656,0.58594 0.70703,-0.70703 -0.58594,-0.97656 c 0.13139,-0.22672 0.23251,-0.46967 0.30078,-0.72266 l 1.1035,-0.27539 v -1 l -1.1074,-0.27734 c -0.0672,-0.25213 -0.167,-0.49441 -0.29688,-0.72071 l 0.58594,-0.97656 -0.70703,-0.70703 -0.97656,0.58594 c -0.22672,-0.13139 -0.46967,-0.23251 -0.72266,-0.30078 L 366.5,541.36 Z m 0.5,2 c 0.0665,2e-5 0.13302,0.003 0.19922,0.01 0.0662,0.006 0.13203,0.0163 0.19726,0.0293 0.0659,0.0136 0.13111,0.0306 0.19532,0.0508 0.0636,0.0197 0.12618,0.0425 0.1875,0.0684 0.0613,0.0256 0.12125,0.0543 0.17968,0.0859 0.0584,0.0323 0.11508,0.0675 0.16993,0.10547 0.0554,0.0377 0.10883,0.0781 0.16015,0.12109 0.0511,0.0431 0.1,0.0887 0.14649,0.13672 0.046,0.0473 0.0897,0.0968 0.13086,0.14844 0.0418,0.0527 0.0809,0.10744 0.11718,0.16406 0.0361,0.0562 0.0693,0.11426 0.0996,0.17383 0.0297,0.0592 0.0564,0.1198 0.0801,0.18164 0.0247,0.062 0.0462,0.12526 0.0645,0.18945 0.0176,0.0643 0.0319,0.12954 0.043,0.19532 0.0111,0.066 0.0189,0.13246 0.0234,0.19921 0.004,0.0468 0.006,0.0937 0.006,0.14059 -2e-5,0.0665 -0.003,0.13302 -0.01,0.19922 -0.006,0.0662 -0.0163,0.13203 -0.0293,0.19726 -0.0136,0.0659 -0.0306,0.13111 -0.0508,0.19532 -0.0197,0.0636 -0.0425,0.12618 -0.0684,0.1875 -0.0256,0.0613 -0.0543,0.12125 -0.0859,0.17968 -0.0323,0.0584 -0.0675,0.11508 -0.10547,0.16993 -0.0377,0.0554 -0.0781,0.10883 -0.1211,0.16015 -0.0431,0.0511 -0.0887,0.1 -0.13672,0.14649 -0.0473,0.046 -0.0968,0.0897 -0.14843,0.13086 -0.0527,0.0418 -0.10744,0.0809 -0.16407,0.11718 -0.0562,0.0361 -0.11425,0.0693 -0.17382,0.0996 -0.0592,0.0297 -0.1198,0.0564 -0.18164,0.0801 -0.062,0.0246 -0.12527,0.0461 -0.18946,0.0644 -0.0643,0.0176 -0.12953,0.0319 -0.19531,0.043 -0.066,0.0111 -0.13246,0.0189 -0.19922,0.0234 -0.0279,0.004 -0.0559,0.007 -0.084,0.01 h -0.13672 c -0.0398,-0.002 -0.0795,-0.005 -0.11914,-0.01 -0.0662,-0.006 -0.13204,-0.0163 -0.19727,-0.0293 -0.0659,-0.0136 -0.1311,-0.0306 -0.19531,-0.0508 -0.0636,-0.0197 -0.12618,-0.0425 -0.1875,-0.0684 -0.0613,-0.0256 -0.12126,-0.0543 -0.17969,-0.0859 -0.0584,-0.0323 -0.11507,-0.0675 -0.16992,-0.10546 -0.0554,-0.0377 -0.10883,-0.0781 -0.16016,-0.1211 -0.0301,-0.0265 -0.0594,-0.0538 -0.0879,-0.082 l -0.0879,-0.0879 c -0.0353,-0.0371 -0.0692,-0.0755 -0.10156,-0.11523 -0.0418,-0.0527 -0.0809,-0.10744 -0.11719,-0.16407 -0.0361,-0.0562 -0.0693,-0.11425 -0.0996,-0.17382 -0.0297,-0.0592 -0.0564,-0.1198 -0.0801,-0.18164 -0.0247,-0.062 -0.0462,-0.12527 -0.0645,-0.18946 -0.0176,-0.0643 -0.0319,-0.12953 -0.043,-0.19531 -0.0111,-0.066 -0.0189,-0.13246 -0.0234,-0.19922 -0.004,-0.0468 -0.006,-0.0937 -0.006,-0.14062 2e-5,-0.0665 0.003,-0.13302 0.01,-0.19922 0.006,-0.0662 0.0163,-0.13204 0.0293,-0.19727 0.0136,-0.0659 0.0306,-0.1311 0.0508,-0.19531 0.0197,-0.0636 0.0425,-0.12618 0.0684,-0.1875 0.0256,-0.0613 0.0543,-0.12126 0.0859,-0.17969 0.0323,-0.0584 0.0675,-0.11507 0.10547,-0.16992 0.0377,-0.0554 0.0781,-0.10883 0.1211,-0.16016 0.0431,-0.0511 0.0887,-0.1 0.13672,-0.14648 0.0473,-0.046 0.0968,-0.0897 0.14843,-0.13086 0.0527,-0.0418 0.10744,-0.0809 0.16407,-0.11719 0.0562,-0.0361 0.11425,-0.0693 0.17382,-0.0996 0.0592,-0.0297 0.1198,-0.0564 0.18164,-0.0801 0.062,-0.0246 0.12527,-0.0462 0.18946,-0.0645 0.0643,-0.0176 0.12953,-0.0319 0.19531,-0.043 0.066,-0.0111 0.13246,-0.0189 0.19922,-0.0234 0.0467,-0.005 0.0936,-0.008 0.14062,-0.01 z"
       class="ColorScheme-Text"
       style="fill-opacity:1.0;fill:url(#linearGradient913)" />
    <rect
       id="rect16"
       ry="1"
       height="2"
       width="6"
       y="535.35999"
       x="363"
       style="fill:#55d400" />
    <path
       id="path18"
       d="m 362,534.36 c -1.662,0 -3,1.338 -3,3 v 16 c 0,1.662 1.338,3 3,3 h 8 c 1.662,0 3,-1.338 3,-3 v -16 c 0,-1.662 -1.338,-3 -3,-3 z m 0,2 h 8 c 0.55399,0 1,0.44601 1,1 v 16 c 0,0.55399 -0.44601,1 -1,1 h -8 c -0.55399,0 -1,-0.44601 -1,-1 v -16 c 0,-0.55399 0.44601,-1 1,-1 z"
       style="fill-opacity:1.0;fill:url(#linearGradient905)" />
  </g>
  <g
     fill="currentColor"
     class="ColorScheme-Text"
     transform="translate(-321,-529.36)"
     id="kdeconnect">
    <path
       id="path21"
       fill="currentColor"
       d="M 11,2 C 9.338,2 8,3.338 8,5 v 22 c 0,1.662 1.338,3 3,3 h 10 c 1.662,0 3,-1.338 3,-3 V 5 C 24,3.338 22.662,2 21,2 Z m 0,2 h 1.4922 l 0.49023,0.65234 C 13.09835,4.80615 13.13748,5 13.33009,5 h 5.3398 C 18.8625,5 18.90163,4.80615 19.01755,4.65234 L 19.50778,4 h 1.4922 c 0.55399,0 1,0.44601 1,1 v 22 c 0,0.55399 -0.44601,1 -1,1 h -10 c -0.55399,0 -1,-0.44601 -1,-1 V 5 c 0,-0.55399 0.44601,-1 1,-1 z"
       transform="translate(321,529.36)"
       class="ColorScheme-Text"
       style="fill-opacity:1.0;fill:url(#linearGradient889)" />
    <rect
       id="rect23"
       fill="none"
       height="32"
       width="32"
       y="529.35999"
       x="321" />
    <rect
       id="rect25"
       opacity="0.5"
       ry="0.5"
       height="1"
       width="8"
       y="555.35999"
       x="333"
       style="fill:#338000" />
    <path
       id="path27"
       fill="currentColor"
       d="m 336.5,541.36 -0.27734,1.1074 c -0.25213,0.0672 -0.49441,0.167 -0.72071,0.29688 l -0.97656,-0.58594 -0.70703,0.70703 0.58594,0.97656 c -0.13139,0.22672 -0.23251,0.46967 -0.30078,0.72266 l -1.1035,0.27539 v 1 l 1.1074,0.27734 c 0.0672,0.25213 0.167,0.49441 0.29688,0.72071 l -0.58594,0.97656 0.70703,0.70703 0.97656,-0.58594 c 0.22672,0.13139 0.46967,0.23251 0.72266,0.30078 l 0.27539,1.1035 h 1 l 0.27734,-1.1074 c 0.25213,-0.0672 0.49441,-0.167 0.72071,-0.29688 l 0.97656,0.58594 0.70703,-0.70703 -0.58594,-0.97656 c 0.13139,-0.22672 0.23251,-0.46967 0.30078,-0.72266 l 1.1035,-0.27539 v -1 l -1.1074,-0.27734 c -0.0672,-0.25213 -0.167,-0.49441 -0.29688,-0.72071 l 0.58594,-0.97656 -0.70703,-0.70703 -0.97656,0.58594 c -0.22672,-0.13139 -0.46967,-0.23251 -0.72266,-0.30078 L 337.5,541.36 Z m 0.5,2 c 0.0665,2e-5 0.13302,0.003 0.19922,0.01 0.0662,0.006 0.13203,0.0163 0.19726,0.0293 0.0659,0.0136 0.13111,0.0306 0.19532,0.0508 0.0636,0.0197 0.12618,0.0425 0.1875,0.0684 0.0613,0.0256 0.12125,0.0543 0.17968,0.0859 0.0584,0.0323 0.11508,0.0675 0.16993,0.10547 0.0554,0.0377 0.10883,0.0781 0.16015,0.12109 0.0511,0.0431 0.1,0.0887 0.14649,0.13672 0.046,0.0473 0.0897,0.0968 0.13086,0.14844 0.0418,0.0527 0.0809,0.10744 0.11718,0.16406 0.0361,0.0562 0.0693,0.11426 0.0996,0.17383 0.0297,0.0592 0.0564,0.1198 0.0801,0.18164 0.0247,0.062 0.0462,0.12526 0.0645,0.18945 0.0176,0.0643 0.0319,0.12954 0.043,0.19532 0.0111,0.066 0.0189,0.13246 0.0234,0.19921 0.004,0.0468 0.006,0.0937 0.006,0.14059 -2e-5,0.0665 -0.003,0.13302 -0.01,0.19922 -0.006,0.0662 -0.0163,0.13203 -0.0293,0.19726 -0.0136,0.0659 -0.0306,0.13111 -0.0508,0.19532 -0.0197,0.0636 -0.0425,0.12618 -0.0684,0.1875 -0.0256,0.0613 -0.0543,0.12125 -0.0859,0.17968 -0.0323,0.0584 -0.0675,0.11508 -0.10547,0.16993 -0.0377,0.0554 -0.0781,0.10883 -0.1211,0.16015 -0.0431,0.0511 -0.0887,0.1 -0.13672,0.14649 -0.0473,0.046 -0.0968,0.0897 -0.14843,0.13086 -0.0527,0.0418 -0.10744,0.0809 -0.16407,0.11718 -0.0562,0.0361 -0.11425,0.0693 -0.17382,0.0996 -0.0592,0.0297 -0.1198,0.0564 -0.18164,0.0801 -0.062,0.0246 -0.12527,0.0461 -0.18946,0.0644 -0.0643,0.0176 -0.12953,0.0319 -0.19531,0.043 -0.066,0.0111 -0.13246,0.0189 -0.19922,0.0234 -0.0279,0.004 -0.0559,0.007 -0.084,0.01 h -0.13672 c -0.0398,-0.002 -0.0795,-0.005 -0.11914,-0.01 -0.0662,-0.006 -0.13204,-0.0163 -0.19727,-0.0293 -0.0659,-0.0136 -0.1311,-0.0306 -0.19531,-0.0508 -0.0636,-0.0197 -0.12618,-0.0425 -0.1875,-0.0684 -0.0613,-0.0256 -0.12126,-0.0543 -0.17969,-0.0859 -0.0584,-0.0323 -0.11507,-0.0675 -0.16992,-0.10546 -0.0554,-0.0377 -0.10883,-0.0781 -0.16016,-0.1211 -0.0301,-0.0265 -0.0594,-0.0538 -0.0879,-0.082 l -0.0879,-0.0879 c -0.0353,-0.0371 -0.0692,-0.0755 -0.10156,-0.11523 -0.0418,-0.0527 -0.0809,-0.10744 -0.11719,-0.16407 -0.0361,-0.0562 -0.0693,-0.11425 -0.0996,-0.17382 -0.0297,-0.0592 -0.0564,-0.1198 -0.0801,-0.18164 -0.0247,-0.062 -0.0462,-0.12527 -0.0645,-0.18946 -0.0176,-0.0643 -0.0319,-0.12953 -0.043,-0.19531 -0.0111,-0.066 -0.0189,-0.13246 -0.0234,-0.19922 -0.004,-0.0468 -0.006,-0.0937 -0.006,-0.14062 2e-5,-0.0665 0.003,-0.13302 0.01,-0.19922 0.006,-0.0662 0.0163,-0.13204 0.0293,-0.19727 0.0136,-0.0659 0.0306,-0.1311 0.0508,-0.19531 0.0197,-0.0636 0.0425,-0.12618 0.0684,-0.1875 0.0256,-0.0613 0.0543,-0.12126 0.0859,-0.17969 0.0323,-0.0584 0.0675,-0.11507 0.10547,-0.16992 0.0377,-0.0554 0.0781,-0.10883 0.1211,-0.16016 0.0431,-0.0511 0.0887,-0.1 0.13672,-0.14648 0.0473,-0.046 0.0968,-0.0897 0.14843,-0.13086 0.0527,-0.0418 0.10744,-0.0809 0.16407,-0.11719 0.0562,-0.0361 0.11425,-0.0693 0.17382,-0.0996 0.0592,-0.0297 0.1198,-0.0564 0.18164,-0.0801 0.062,-0.0246 0.12527,-0.0462 0.18946,-0.0645 0.0643,-0.0176 0.12953,-0.0319 0.19531,-0.043 0.066,-0.0111 0.13246,-0.0189 0.19922,-0.0234 0.0467,-0.005 0.0936,-0.008 0.14062,-0.01 z"
       class="ColorScheme-Text"
       style="fill-opacity:1.0;fill:url(#linearGradient897)" />
  </g>
</svg>
