<?xml version="1.0" encoding="UTF-8" standalone="no"?>
<svg
   width="22"
   height="22"
   version="1.1"
   id="svg21"
   sodipodi:docname="kdf.svg"
   inkscape:version="1.1.1 (3bf5ae0d25, 2021-09-20, custom)"
   xmlns:inkscape="http://www.inkscape.org/namespaces/inkscape"
   xmlns:sodipodi="http://sodipodi.sourceforge.net/DTD/sodipodi-0.dtd"
   xmlns:xlink="http://www.w3.org/1999/xlink"
   xmlns="http://www.w3.org/2000/svg"
   xmlns:svg="http://www.w3.org/2000/svg">
  <sodipodi:namedview
     id="namedview23"
     pagecolor="#ffffff"
     bordercolor="#666666"
     borderopacity="1.0"
     inkscape:pageshadow="2"
     inkscape:pageopacity="0.0"
     inkscape:pagecheckerboard="0"
     showgrid="false"
     inkscape:zoom="1.3832392"
     inkscape:cx="-139.1661"
     inkscape:cy="28.55616"
     inkscape:window-width="1323"
     inkscape:window-height="744"
     inkscape:window-x="43"
     inkscape:window-y="0"
     inkscape:window-maximized="1"
     inkscape:current-layer="svg21" />
  <defs
     id="defs3">
    <linearGradient
       inkscape:collect="always"
       id="linearGradient882">
      <stop
         style="stop-color:#ffff00;stop-opacity:1;"
         offset="0"
         id="stop878" />
      <stop
         style="stop-color:#ff5300;stop-opacity:1"
         offset="1"
         id="stop880" />
    </linearGradient>
    <style
       id="current-color-scheme"
       type="text/css">.ColorScheme-Text { color:#dedede; } .ColorScheme-Highlight { color:#5294e2; } .ColorScheme-ButtonBackground { color:#dedede; }</style>
    <linearGradient
       inkscape:collect="always"
       xlink:href="#linearGradient882"
       id="linearGradient884"
       x1="-18"
       y1="14"
       x2="-6"
       y2="14"
       gradientUnits="userSpaceOnUse" />
    <linearGradient
       inkscape:collect="always"
       xlink:href="#linearGradient882"
       id="linearGradient911"
       x1="4"
       y1="11"
       x2="18"
       y2="11"
       gradientUnits="userSpaceOnUse" />
  </defs>
  <rect
     class="ColorScheme-Text"
     x="-20.43"
     y="-19.39"
     width="16"
     height="16"
     ry="0"
     opacity="0"
     id="rect5" />
  <g
     id="16-16-kdf">
    <rect
       x="-20"
       y="6"
       width="16"
       height="16"
       ry="0"
       opacity="0"
       id="rect7" />
    <path
       class="ColorScheme-Text"
       d="m -17,7 c -1,0 -1,1 -1,1 v 12 c 0,0 0,1 1,1 h 10 c 0,0 1,0 1,-1 V 8 c 0,0 0,-1 -1,-1 z m 5,2 c 2.2091,0 4,1.7909 4,4 0,2.2091 -1.7909,4 -4,4 h -4 v -4 c 0,-2.2091 1.7909,-4 4,-4 z m 0,2 c -1.1046,0 -2,0.89543 -2,2 0,1.10457 0.89543,2 2,2 1.10457,0 2,-0.89543 2,-2 0,-1.10457 -0.89543,-2 -2,-2 z"
       fill="currentColor"
       id="path9"
       style="fill:url(#linearGradient884);fill-opacity:1" />
  </g>
  <g
     id="kdf">
    <path
       d="M 6,2 C 4.892,2 4,2.892 4,4 v 14 c 0,1.108 0.892,2 2,2 h 10 c 1.108,0 2,-0.892 2,-2 V 4 C 18,2.892 17.108,2 16,2 Z M 6,4 H 7 V 6 H 6 Z M 8,4 H 9 V 6 H 8 Z m 2,0 h 1 v 2 h -1 z m 2,0 h 1 v 2 h -1 z m 2,1 h 1 v 1 h -1 z m -3,2 a 5,5 0 0 1 5,5 5,5 0 0 1 -5,5 5,5 0 0 1 -5,-5 5,5 0 0 1 5,-5 z m 5,10 a 1,1 0 0 1 1,1 1,1 0 0 1 -1,1 1,1 0 0 1 -1,-1 1,1 0 0 1 1,-1 z"
       fill="#dedede"
       id="path12"
       style="fill:url(#linearGradient911);fill-opacity:1.0" />
    <path
       d="M 0,0 H 22 V 22 H 0 Z"
       opacity="0"
       id="path14" />
    <g
       fill="#dedede"
       id="g18">
      <circle
         cx="11"
         cy="12"
         r="2"
         id="circle16" />
    </g>
  </g>
</svg>
