<?xml version="1.0" encoding="UTF-8" standalone="no"?>
<svg
   id="svg7384"
   width="22"
   height="22"
   version="1.1"
   style="enable-background:new"
   sodipodi:docname="kgpg.svg"
   inkscape:version="1.1.1 (3bf5ae0d25, 2021-09-20, custom)"
   xmlns:inkscape="http://www.inkscape.org/namespaces/inkscape"
   xmlns:sodipodi="http://sodipodi.sourceforge.net/DTD/sodipodi-0.dtd"
   xmlns:xlink="http://www.w3.org/1999/xlink"
   xmlns="http://www.w3.org/2000/svg"
   xmlns:svg="http://www.w3.org/2000/svg">
  <sodipodi:namedview
     id="namedview13"
     pagecolor="#ffffff"
     bordercolor="#666666"
     borderopacity="1.0"
     inkscape:pageshadow="2"
     inkscape:pageopacity="0.0"
     inkscape:pagecheckerboard="0"
     showgrid="false"
     inkscape:zoom="7.176933"
     inkscape:cx="23.756666"
     inkscape:cy="5.9217496"
     inkscape:window-width="1323"
     inkscape:window-height="744"
     inkscape:window-x="43"
     inkscape:window-y="0"
     inkscape:window-maximized="1"
     inkscape:current-layer="svg7384" />
  <defs
     id="defs3">
    <linearGradient
       inkscape:collect="always"
       id="linearGradient918">
      <stop
         style="stop-color:#d400aa;stop-opacity:1;"
         offset="0"
         id="stop914" />
      <stop
         style="stop-color:#672178;stop-opacity:1"
         offset="1"
         id="stop916" />
    </linearGradient>
    <style
       id="current-color-scheme"
       type="text/css">
   .ColorScheme-Text { color:#d3dae3; } .ColorScheme-Highlight { color:#5294e2; } .ColorScheme-ButtonBackground { color:#d3dae3; }
  </style>
    <linearGradient
       inkscape:collect="always"
       xlink:href="#linearGradient918"
       id="linearGradient920"
       x1="4"
       y1="10.999999"
       x2="18"
       y2="10.999999"
       gradientUnits="userSpaceOnUse" />
    <linearGradient
       inkscape:collect="always"
       xlink:href="#linearGradient918"
       id="linearGradient1004"
       x1="5"
       y1="32"
       x2="17"
       y2="32"
       gradientUnits="userSpaceOnUse" />
  </defs>
  <g
     id="kgpg"
     transform="translate(-346.99759,257.00336)"
     style="display:inline;enable-background:new">
    <rect
       id="rect4192-0"
       width="22"
       height="22"
       x="347"
       y="-257"
       style="opacity:0;fill:#2b0000;fill-opacity:0.403922;fill-rule:nonzero;stroke:none;stroke-width:1;stroke-linecap:round;stroke-linejoin:round;stroke-miterlimit:4;stroke-dasharray:none;stroke-dashoffset:0;stroke-opacity:1" />
    <path
       class="ColorScheme-Text"
       style="fill:url(#linearGradient920);fill-opacity:1"
       id="path5975-0"
       d="M 11,3 C 5.99738,2.997 6,7.6425781 6,7.6425781 V 10 H 5.1660156 C 4.5196856,10 4,10.36686 4,11 v 6.857422 C 4,18.490572 4.5196856,19 5.1660156,19 H 16.833984 C 17.480314,19 18,18.490572 18,17.857422 V 11 c 0,-0.63314 -0.528976,-0.89079 -1.166016,-1 H 16 V 7.6425781 c 0,0 0.003,-4.6392181 -5,-4.6425781 z m 0,3 c 2.00262,-0.003 2,1.5722656 2,1.5722656 V 10 H 9 V 7.5722656 C 9,7.5722656 9.00301,6.00336 11,6 Z m -4,7 h 8 v 3 H 7 Z"
       transform="translate(346.99759,-257.00336)" />
  </g>
  <g
     id="16-16-kgpg"
     transform="translate(-346.99759,310.00336)"
     style="display:inline;enable-background:new">
    <rect
       id="rect4258"
       width="16"
       height="16"
       x="350"
       y="-286"
       style="opacity:0;fill:#ff7dff;fill-opacity:1;stroke:none;stroke-opacity:1" />
    <g
       id="layer9-4"
       transform="translate(2.99739,-35.00336)"
       style="display:inline">
      <path
         class="ColorScheme-Text"
         style="fill:url(#linearGradient1004);fill-opacity:1.0"
         id="path5975-5"
         d="M 11,25 C 8.784,25 7,26.82162 7,29.0625 V 31 H 6 c -0.554,0 -1,0.446 -1,1 v 6 c 0,0.554 0.446,1 1,1 h 10 c 0.554,0 1,-0.446 1,-1 v -6 c 0,-0.554 -0.446,-1 -1,-1 H 15 V 29.0625 C 15,26.8225 13.216,25 11,25 Z m 0,2 c 1.108,0 2,0.892 2,2 v 2 H 9 v -2 c 0,-1.108 0.892,-2 2,-2 z m -4,6 h 8 v 4 H 7 Z"
         transform="translate(344.0002,-275)" />
    </g>
  </g>
</svg>
