<?xml version="1.0" encoding="UTF-8" standalone="no"?>
<svg
   id="svg4147"
   width="22"
   height="22"
   version="1.1"
   viewBox="0 0 22 22"
   sodipodi:docname="korgac.svg"
   inkscape:version="1.1.1 (3bf5ae0d25, 2021-09-20, custom)"
   xmlns:inkscape="http://www.inkscape.org/namespaces/inkscape"
   xmlns:sodipodi="http://sodipodi.sourceforge.net/DTD/sodipodi-0.dtd"
   xmlns:xlink="http://www.w3.org/1999/xlink"
   xmlns="http://www.w3.org/2000/svg"
   xmlns:svg="http://www.w3.org/2000/svg">
  <sodipodi:namedview
     id="namedview8"
     pagecolor="#ffffff"
     bordercolor="#666666"
     borderopacity="1.0"
     inkscape:pageshadow="2"
     inkscape:pageopacity="0.0"
     inkscape:pagecheckerboard="0"
     showgrid="false"
     inkscape:zoom="29.417819"
     inkscape:cx="11.438645"
     inkscape:cy="10.894757"
     inkscape:window-width="1323"
     inkscape:window-height="744"
     inkscape:window-x="43"
     inkscape:window-y="0"
     inkscape:window-maximized="1"
     inkscape:current-layer="svg4147" />
  <defs
     id="defs10">
    <linearGradient
       inkscape:collect="always"
       id="linearGradient875">
      <stop
         style="stop-color:#0dc456;stop-opacity:1"
         offset="0"
         id="stop871" />
      <stop
         style="stop-color:#217844;stop-opacity:1"
         offset="1"
         id="stop873" />
    </linearGradient>
    <style
       id="current-color-scheme"
       type="text/css">
   .ColorScheme-Text { color:#d3dae3; } .ColorScheme-Highlight { color:#5294e2; } .ColorScheme-ButtonBackground { color:#d3dae3; }
  </style>
    <linearGradient
       inkscape:collect="always"
       xlink:href="#linearGradient875"
       id="linearGradient877"
       x1="4"
       y1="12"
       x2="20"
       y2="12"
       gradientUnits="userSpaceOnUse" />
  </defs>
  <g
     id="korgac"
     transform="translate(-1,-1)">
    <rect
       id="rect3009"
       class="ColorScheme-Text"
       width="22"
       height="22"
       x="1"
       y="1"
       style="fill:currentColor;fill-opacity:0;stroke:none" />
    <path
       id="rect4120-4-7"
       class="ColorScheme-Text"
       d="M 12,4 C 10.458705,4 9.2028355,5.1661805 9.0332031,6.6621094 6.6483721,7.7755664 5,10.185204 5,13 c 0,3.877997 3.1220027,7 7,7 3.87799,0 7,-3.122003 7,-7 C 19,10.185204 17.351627,7.7755664 14.966797,6.6621094 14.797164,5.1661805 13.541295,4 12,4 Z M 7.875,4.0703125 C 6.2111759,4.9227004 4.8558592,6.2726121 4,7.9296875 V 8.0527344 L 4.921875,8.3574219 C 5.6762063,6.9139363 6.8553233,5.7395464 8.3046875,4.9882812 L 7.9980469,4.0703125 Z m 8.126953,0 -0.306641,0.9179687 c 1.44936,0.7512718 2.628473,1.9256618 3.382813,3.3691407 L 20,8.0527344 V 7.9296875 C 19.14414,6.2726187 17.788818,4.9226938 16.125,4.0703125 Z M 12,8 c 2.769992,0 5,2.241238 5,5 h -5 z"
       style="opacity:1;fill:url(#linearGradient877);fill-opacity:1;stroke:none" />
  </g>
</svg>
