<?xml version="1.0" encoding="UTF-8" standalone="no"?>
<svg
   width="22"
   height="22"
   version="1.1"
   id="svg10"
   sodipodi:docname="kteatime.svg"
   inkscape:version="1.1.1 (3bf5ae0d25, 2021-09-20, custom)"
   xmlns:inkscape="http://www.inkscape.org/namespaces/inkscape"
   xmlns:sodipodi="http://sodipodi.sourceforge.net/DTD/sodipodi-0.dtd"
   xmlns:xlink="http://www.w3.org/1999/xlink"
   xmlns="http://www.w3.org/2000/svg"
   xmlns:svg="http://www.w3.org/2000/svg">
  <sodipodi:namedview
     id="namedview12"
     pagecolor="#ffffff"
     bordercolor="#666666"
     borderopacity="1.0"
     inkscape:pageshadow="2"
     inkscape:pageopacity="0.0"
     inkscape:pagecheckerboard="0"
     showgrid="false"
     inkscape:zoom="18.23859"
     inkscape:cx="8.3613919"
     inkscape:cy="9.3483103"
     inkscape:window-width="1323"
     inkscape:window-height="744"
     inkscape:window-x="43"
     inkscape:window-y="0"
     inkscape:window-maximized="1"
     inkscape:current-layer="svg10" />
  <defs
     id="defs3">
    <linearGradient
       inkscape:collect="always"
       id="linearGradient852">
      <stop
         style="stop-color:#672178;stop-opacity:1"
         offset="0"
         id="stop848" />
      <stop
         style="stop-color:#bc5fd3;stop-opacity:1"
         offset="1"
         id="stop850" />
    </linearGradient>
    <style
       id="current-color-scheme"
       type="text/css" />
    <linearGradient
       inkscape:collect="always"
       xlink:href="#linearGradient852"
       id="linearGradient854"
       x1="33"
       y1="10.5"
       x2="50"
       y2="10.5"
       gradientUnits="userSpaceOnUse" />
  </defs>
  <g
     id="kteatime"
     transform="translate(-30)">
    <path
       d="M 30,0 H 52 V 22 H 30 Z"
       fill-opacity="0"
       id="path5" />
    <path
       d="m 40,2 v 2 h 1 V 2 Z m -3,1 v 1 h 1 V 3 Z m 6,0 v 1 h 1 V 3 Z m -8,2 v 11 c 0,0.4714 0.5286,1 1,1 h 10 c 0.4714,0 1,-0.5286 1,-1 v -2 h 1 c 1.108,0 2,-0.892 2,-2 V 8 C 50,6.892 49.108,6 48,6 H 47 V 5 Z m 12,2 h 1 c 0.554,0 1,0.446 1,1 v 4 c 0,0.554 -0.446,1 -1,1 h -1 z m -9,2 h 3 v 4 h -3 z m -5,9 v 1 h 16 v -1 z"
       color="#dfdfdf"
       fill="currentColor"
       id="path7"
       style="fill-opacity:1;fill:url(#linearGradient854)" />
  </g>
</svg>
