<?xml version="1.0" encoding="UTF-8" standalone="no"?>
<svg
   version="1.1"
   viewBox="0 0 22 22"
   id="svg49"
   sodipodi:docname="notification.svg"
   inkscape:version="1.1.1 (3bf5ae0d25, 2021-09-20, custom)"
   xmlns:inkscape="http://www.inkscape.org/namespaces/inkscape"
   xmlns:sodipodi="http://sodipodi.sourceforge.net/DTD/sodipodi-0.dtd"
   xmlns:xlink="http://www.w3.org/1999/xlink"
   xmlns="http://www.w3.org/2000/svg"
   xmlns:svg="http://www.w3.org/2000/svg">
  <sodipodi:namedview
     id="namedview51"
     pagecolor="#ffffff"
     bordercolor="#666666"
     borderopacity="1.0"
     inkscape:pageshadow="2"
     inkscape:pageopacity="0.0"
     inkscape:pagecheckerboard="0"
     showgrid="false"
     inkscape:zoom="4.3778302"
     inkscape:cx="58.819092"
     inkscape:cy="39.631505"
     inkscape:window-width="1323"
     inkscape:window-height="744"
     inkscape:window-x="43"
     inkscape:window-y="0"
     inkscape:window-maximized="1"
     inkscape:current-layer="svg49" />
  <defs
     id="defs3">
    <linearGradient
       inkscape:collect="always"
       id="linearGradient891">
      <stop
         style="stop-color:#363636;stop-opacity:1;"
         offset="0"
         id="stop887" />
      <stop
         style="stop-color:#00e23a;stop-opacity:1"
         offset="1"
         id="stop889" />
    </linearGradient>
    <style
       id="current-color-scheme"
       type="text/css">.ColorScheme-Text { color:#363636; }</style>
    <radialGradient
       inkscape:collect="always"
       xlink:href="#linearGradient891"
       id="radialGradient895"
       cx="10.999731"
       cy="11.504848"
       fx="10.999731"
       fy="11.504848"
       r="8.9873629"
       gradientTransform="matrix(1,0,0,1.0565004,0,-0.6500286)"
       gradientUnits="userSpaceOnUse" />
    <radialGradient
       inkscape:collect="always"
       xlink:href="#linearGradient891"
       id="radialGradient905"
       cx="62.00172"
       cy="-20.493042"
       fx="62.00172"
       fy="-20.493042"
       r="8.9873629"
       gradientTransform="matrix(1,0,0,1.0564882,0,1.1576144)"
       gradientUnits="userSpaceOnUse" />
    <linearGradient
       inkscape:collect="always"
       xlink:href="#linearGradient891"
       id="linearGradient1236"
       x1="45"
       y1="10"
       x2="57"
       y2="10"
       gradientUnits="userSpaceOnUse" />
    <linearGradient
       inkscape:collect="always"
       xlink:href="#linearGradient891"
       id="linearGradient1244"
       x1="42"
       y1="10"
       x2="60"
       y2="10"
       gradientUnits="userSpaceOnUse" />
    <linearGradient
       inkscape:collect="always"
       xlink:href="#linearGradient891"
       id="linearGradient1254"
       x1="42"
       y1="10"
       x2="60"
       y2="10"
       gradientUnits="userSpaceOnUse" />
    <radialGradient
       inkscape:collect="always"
       xlink:href="#linearGradient891"
       id="radialGradient1262"
       cx="62.00172"
       cy="-20.493042"
       fx="62.00172"
       fy="-20.493042"
       r="8.9873629"
       gradientTransform="matrix(1,0,0,1.0564882,0,1.1576144)"
       gradientUnits="userSpaceOnUse" />
    <radialGradient
       inkscape:collect="always"
       xlink:href="#linearGradient891"
       id="radialGradient1270"
       cx="67"
       cy="-25"
       fx="67"
       fy="-25"
       r="3"
       gradientUnits="userSpaceOnUse" />
    <radialGradient
       inkscape:collect="always"
       xlink:href="#linearGradient891"
       id="radialGradient1280"
       cx="10.999731"
       cy="77.179146"
       fx="10.999731"
       fy="77.179146"
       r="8.9873629"
       gradientTransform="matrix(1,0,0,1.0565004,0,-4.3606533)"
       gradientUnits="userSpaceOnUse" />
    <radialGradient
       inkscape:collect="always"
       xlink:href="#linearGradient891"
       id="radialGradient1288"
       cx="51"
       cy="10"
       fx="51"
       fy="10"
       r="6"
       gradientUnits="userSpaceOnUse" />
  </defs>
  <path
     id="expander-bottom"
     d="m-18 23 2-2 2 2z"
     class="ColorScheme-Text"
     fill="currentColor" />
  <path
     id="expander-top"
     d="m-18 17 2 2 2-2z"
     class="ColorScheme-Text"
     fill="currentColor" />
  <path
     id="expander-right"
     d="m-13 18-2 2 2 2z"
     class="ColorScheme-Text"
     fill="currentColor" />
  <path
     id="expander-left"
     d="m-19 18 2 2-2 2z"
     class="ColorScheme-Text"
     fill="currentColor" />
  <g
     id="notification-empty"
     class="ColorScheme-Text"
     fill="currentColor">
    <rect
       width="22"
       height="22"
       ry="0"
       opacity="0"
       id="rect9"
       x="0"
       y="0" />
    <path
       class="ColorScheme-Text"
       d="M 10.994,2.0097 C 9.7677,2.0169165 8.8362,3.1151 9.0292,4.3261 L 8.986231,4.339772 c -2.3258,0.82764 -3.9902,3.0482 -3.9902,5.6582 v 2.002 h 0.00391 c -1.888e-4,0.84085 -0.32954,1.642 -0.75781,2.3418 -0.47964,0.78375 -1.4188,1.4875 -1.9492,1.9492 -0.356,0.30992 -0.39174,1.0243 0,1.416 0.19841,0.19841 0.45742,0.29359 0.7168,0.29102 h 15.98 c 0.25938,0.0026 0.51839,-0.09261 0.7168,-0.29102 0.39174,-0.39174 0.356,-1.1061 0,-1.416 -0.5304,-0.46174 -1.4696,-1.1655 -1.9492,-1.9492 -0.42827,-0.69981 -0.75762,-1.501 -0.75781,-2.3418 h 0.0039 v -2.002 c 0,-2.61 -1.6644,-4.8306 -3.9902,-5.6582 L 12.970251,4.3261 c 0.19293,-1.211 -0.73858,-2.3092 -1.9648,-2.3164 -0.002,-1.2e-5 -0.0039,6e-6 -0.0059,0 -0.002,5.8e-6 -0.0039,-1.17e-5 -0.0059,0 z m 0.0059,3.9883 c 2.2107,0 4.0039,1.7912 4.0039,4.002 v 2.0001 h -0.0039 c 4.68e-4,1.3712 0.45966,2.7259 1.3418,3.7578 l 0.20703,0.24219 H 5.45073 L 5.65776,15.7579 c 0.79483,-1.1006 1.3413,-2.3866 1.3418,-3.7578 H 6.99565 V 10 c 3.8e-6,-2.2107 1.7932,-4.002 4.0039,-4.002 z m -2.002,13 c 0,1.3346 1.001,2.002 2.002,2.002 1.001,0 2.002,-0.66732 2.002,-2.002 z"
       fill="currentColor"
       id="path11"
       style="fill-opacity:1;fill:url(#radialGradient895)" />
  </g>
  <g
     id="notification-progress-active"
     class="ColorScheme-Text"
     transform="translate(55.997,-0.004652)"
     fill="currentColor">
    <rect
       x="40"
       y="-1"
       width="22"
       height="22"
       fill-opacity="0"
       id="rect14" />
    <path
       d="m 51,1 a 9,9 0 0 0 -9,9 9,9 0 0 0 9,9 9,9 0 0 0 9,-9 9,9 0 0 0 -9,-9 z m 0,2 a 7,7 0 0 1 7,7 7,7 0 0 1 -7,7 7,7 0 0 1 -7,-7 7,7 0 0 1 7,-7 z"
       id="path16"
       style="fill-opacity:1.0;fill:url(#linearGradient1244)" />
    <circle
       cx="51"
       cy="10"
       r="6"
       id="circle18"
       style="fill-opacity:1.0;fill:url(#linearGradient1236)" />
  </g>
  <g
     id="notification-progress-inactive"
     class="ColorScheme-Text"
     transform="translate(56.998,39)"
     fill="currentColor">
    <rect
       x="40"
       y="-1"
       width="22"
       height="22"
       fill-opacity="0"
       id="rect21" />
    <path
       class="ColorScheme-Text"
       d="m 51,1 a 9,9 0 0 0 -9,9 9,9 0 0 0 9,9 9,9 0 0 0 9,-9 9,9 0 0 0 -9,-9 z m 0,2 a 7,7 0 0 1 7,7 7,7 0 0 1 -7,7 7,7 0 0 1 -7,-7 7,7 0 0 1 7,-7 z"
       fill="currentColor"
       id="path23"
       style="fill-opacity:1.0;fill:url(#linearGradient1254)" />
    <circle
       class="ColorScheme-Text"
       cx="51"
       cy="10"
       r="6"
       fill="currentColor"
       opacity="0.15"
       id="circle25"
       style="fill-opacity:1.0;fill:url(#radialGradient1288)" />
  </g>
  <g
     id="notification-active"
     class="ColorScheme-Text"
     transform="translate(0,28.131)"
     fill="currentColor">
    <circle
       class="ColorScheme-Text"
       cx="67"
       cy="-25"
       r="3"
       fill="currentColor"
       id="circle28"
       style="fill:#11cb2a;fill-opacity:1" />
    <rect
       x="51.001999"
       y="-31.997999"
       width="22"
       height="22"
       ry="0"
       opacity="0"
       id="rect30" />
    <path
       class="ColorScheme-Text"
       d="m 61.996,-29.988 c -1.2263,0.0072 -2.1578,1.1054 -1.9648,2.3164 l -0.04297,0.01367 c -2.3258,0.82764 -3.9902,3.0482 -3.9902,5.6582 v 2.002 h 0.0039 c -1.89e-4,0.84085 -0.32954,1.642 -0.75781,2.3418 -0.47964,0.78375 -1.4188,1.4875 -1.9492,1.9492 -0.356,0.30992 -0.39174,1.0243 0,1.416 0.19841,0.19841 0.45742,0.29359 0.7168,0.29102 h 15.98 c 0.25938,0.0026 0.51839,-0.09261 0.7168,-0.29102 0.39174,-0.39174 0.356,-1.1061 0,-1.416 -0.5304,-0.46174 -1.4696,-1.1655 -1.9492,-1.9492 -0.42827,-0.69981 -0.75762,-1.501 -0.75781,-2.3418 h 0.0039 v -1.1348 a 4,4 0 0 1 -1.0058,0.13281 4,4 0 0 1 -0.99414,-0.13086 v 1.1328 h -0.0039 c 4.68e-4,1.3712 0.45966,2.7259 1.3418,3.7578 l 0.20703,0.24219 h -11.098 l 0.20703,-0.24219 c 0.79483,-1.1006 1.3413,-2.3866 1.3418,-3.7578 h -0.0039 v -2 c 4e-6,-2.2107 1.7932,-4.002 4.0039,-4.002 0.37972,0 0.73978,0.06923 1.0879,0.16797 a 4,4 0 0 1 0.92578,-1.8262 l -0.04297,-0.01367 c 0.19293,-1.211 -0.73862,-2.3092 -1.9648,-2.3164 -0.002,-1.2e-5 -0.0039,6e-6 -0.0059,0 -0.002,6e-6 -0.0039,-1.2e-5 -0.0059,0 z M 59.9999,-13 c 0,1.3346 1.001,2.002 2.002,2.002 1.001,0 2.002,-0.66727 2.002,-2.002 z"
       fill="currentColor"
       id="path32"
       style="fill-opacity:1;fill:url(#radialGradient905)" />
  </g>
  <g
     id="notification-inactive"
     class="ColorScheme-Text"
     transform="translate(0,67.988)"
     fill="currentColor">
    <circle
       class="ColorScheme-Text"
       cx="67"
       cy="-25"
       r="3"
       fill="currentColor"
       opacity="0.35"
       id="circle35"
       style="fill-opacity:1.0;fill:url(#radialGradient1270)" />
    <rect
       x="51.001999"
       y="-31.997999"
       width="22"
       height="22"
       ry="0"
       opacity="0"
       id="rect37" />
    <path
       class="ColorScheme-Text"
       d="m 61.996,-29.988 c -1.2263,0.0072 -2.1578,1.1054 -1.9648,2.3164 l -0.04297,0.01367 c -2.3258,0.82764 -3.9902,3.0482 -3.9902,5.6582 v 2.002 h 0.0039 c -1.89e-4,0.84085 -0.32954,1.642 -0.75781,2.3418 -0.47964,0.78375 -1.4188,1.4875 -1.9492,1.9492 -0.356,0.30992 -0.39174,1.0243 0,1.416 0.19841,0.19841 0.45742,0.29359 0.7168,0.29102 h 15.98 c 0.25938,0.0026 0.51839,-0.09261 0.7168,-0.29102 0.39174,-0.39174 0.356,-1.1061 0,-1.416 -0.5304,-0.46174 -1.4696,-1.1655 -1.9492,-1.9492 -0.42827,-0.69981 -0.75762,-1.501 -0.75781,-2.3418 h 0.0039 v -1.1348 a 4,4 0 0 1 -1.0058,0.13281 4,4 0 0 1 -0.99414,-0.13086 v 1.1328 h -0.0039 c 4.68e-4,1.3712 0.45966,2.7259 1.3418,3.7578 l 0.20703,0.24219 h -11.098 l 0.20703,-0.24219 c 0.79483,-1.1006 1.3413,-2.3866 1.3418,-3.7578 h -0.0039 v -2 c 4e-6,-2.2107 1.7932,-4.002 4.0039,-4.002 0.37972,0 0.73978,0.06923 1.0879,0.16797 a 4,4 0 0 1 0.92578,-1.8262 l -0.04297,-0.01367 c 0.19293,-1.211 -0.73862,-2.3092 -1.9648,-2.3164 -0.002,-1.2e-5 -0.0039,6e-6 -0.0059,0 -0.002,6e-6 -0.0039,-1.2e-5 -0.0059,0 z M 59.9999,-13 c 0,1.3346 1.001,2.002 2.002,2.002 1.001,0 2.002,-0.66727 2.002,-2.002 z"
       fill="currentColor"
       id="path39"
       style="fill-opacity:1.0;fill:url(#radialGradient1262)" />
  </g>
  <g
     id="notification-disabled"
     class="ColorScheme-Text"
     transform="translate(0,-30.684)"
     fill="currentColor">
    <path
       class="ColorScheme-Text"
       d="m 2.6582,66.829 18.276,18.276 c 0.42187,0.42187 0.44613,1.0769 0.05439,1.4686 -0.39174,0.39174 -1.0467,0.36748 -1.4686,-0.05439 l -18.276,-18.276 c -0.42187,-0.42187 -0.44613,-1.0769 -0.054393,-1.4686 0.39174,-0.39174 1.0467,-0.36748 1.4686,0.05439 z"
       id="path42" />
    <rect
       class="ColorScheme-Text"
       x="0.089056998"
       y="65.674004"
       width="22"
       height="22"
       ry="0"
       opacity="0"
       id="rect44" />
    <path
       class="ColorScheme-Text"
       d="m 10.994,67.684 c -1.2263,0.0072 -2.1578,1.1054 -1.9648,2.3164 l -0.042969,0.01367 c -2.3258,0.82764 -3.9902,3.0482 -3.9902,5.6582 v 2.002 h 0.00391 c -1.888e-4,0.84085 -0.32954,1.642 -0.75781,2.3418 -0.47964,0.78375 -1.4188,1.4875 -1.9492,1.9492 -0.356,0.30992 -0.39174,1.0243 0,1.416 0.19841,0.19841 0.45742,0.29359 0.7168,0.29102 h 15.98 c 0.25938,0.0026 0.51839,-0.09261 0.7168,-0.29102 0.39174,-0.39174 0.356,-1.1061 0,-1.416 -0.5304,-0.46174 -1.4696,-1.1655 -1.9492,-1.9492 -0.42827,-0.69981 -0.75762,-1.501 -0.75781,-2.3418 h 0.0039 v -2.002 c 0,-2.61 -1.6644,-4.8306 -3.9902,-5.6582 l -0.04297,-0.01367 c 0.19293,-1.211 -0.73858,-2.3092 -1.9648,-2.3164 -0.002,-1.2e-5 -0.0039,6e-6 -0.0059,0 -0.002,6e-6 -0.0039,-1.2e-5 -0.0059,0 z m 0.0059,3.9883 c 2.2107,0 4.0039,1.7912 4.0039,4.002 v 2.0001 h -0.0039 c 4.68e-4,1.3712 0.45966,2.7259 1.3418,3.7578 l 0.20703,0.24219 H 5.45073 L 5.65776,81.4322 c 0.79483,-1.1006 1.3413,-2.3866 1.3418,-3.7578 H 6.99565 v -2.0001 c 3.8e-6,-2.2107 1.7932,-4.002 4.0039,-4.002 z m -2.002,13 c 0,1.3346 1.001,2.002 2.002,2.002 1.001,0 2.002,-0.66732 2.002,-2.002 z"
       opacity="0.35"
       id="path46"
       style="fill-opacity:1;fill:url(#radialGradient1280)" />
  </g>
</svg>
