<?xml version="1.0" encoding="UTF-8" standalone="no"?>
<svg
   width="22"
   height="22"
   version="1.1"
   id="svg21"
   sodipodi:docname="pamac.svg"
   inkscape:version="1.1.1 (3bf5ae0d25, 2021-09-20, custom)"
   xmlns:inkscape="http://www.inkscape.org/namespaces/inkscape"
   xmlns:sodipodi="http://sodipodi.sourceforge.net/DTD/sodipodi-0.dtd"
   xmlns:xlink="http://www.w3.org/1999/xlink"
   xmlns="http://www.w3.org/2000/svg"
   xmlns:svg="http://www.w3.org/2000/svg">
  <sodipodi:namedview
     id="namedview23"
     pagecolor="#ffffff"
     bordercolor="#666666"
     borderopacity="1.0"
     inkscape:pageshadow="2"
     inkscape:pageopacity="0.0"
     inkscape:pagecheckerboard="0"
     showgrid="false"
     inkscape:zoom="10.02035"
     inkscape:cx="11.626341"
     inkscape:cy="8.1334485"
     inkscape:window-width="1323"
     inkscape:window-height="744"
     inkscape:window-x="43"
     inkscape:window-y="0"
     inkscape:window-maximized="1"
     inkscape:current-layer="svg21" />
  <defs
     id="defs3">
    <linearGradient
       inkscape:collect="always"
       id="linearGradient917">
      <stop
         style="stop-color:#5294e2;stop-opacity:1;"
         offset="0"
         id="stop913" />
      <stop
         style="stop-color:#001bff;stop-opacity:1"
         offset="1"
         id="stop915" />
    </linearGradient>
    <linearGradient
       inkscape:collect="always"
       id="linearGradient863">
      <stop
         style="stop-color:#dfdfdf;stop-opacity:1;"
         offset="0"
         id="stop859" />
      <stop
         style="stop-color:#00aa44;stop-opacity:1"
         offset="1"
         id="stop861" />
    </linearGradient>
    <style
       id="current-color-scheme"
       type="text/css">.ColorScheme-Text{color:#dfdfdf;}.ColorScheme-Highlight{color:#5294e2;}</style>
    <radialGradient
       inkscape:collect="always"
       xlink:href="#linearGradient863"
       id="radialGradient865"
       cx="11"
       cy="11"
       fx="11"
       fy="11"
       r="6"
       gradientTransform="matrix(1,0,0,1.25,0,-2.75)"
       gradientUnits="userSpaceOnUse" />
    <radialGradient
       inkscape:collect="always"
       xlink:href="#linearGradient863"
       id="radialGradient911"
       cx="36.000019"
       cy="11"
       fx="36.000019"
       fy="11"
       r="6.00002"
       gradientTransform="matrix(1,0,0,1.2499958,0,-2.7499542)"
       gradientUnits="userSpaceOnUse" />
    <radialGradient
       inkscape:collect="always"
       xlink:href="#linearGradient917"
       id="radialGradient919"
       cx="40"
       cy="16"
       fx="40"
       fy="16"
       r="2"
       gradientUnits="userSpaceOnUse" />
  </defs>
  <defs
     id="defs7">
    <style
       type="text/css"
       id="style5" />
  </defs>
  <g
     id="pamac-tray-no-update">
    <rect
       width="22"
       height="22"
       opacity="0"
       id="rect9"
       x="0"
       y="0" />
    <path
       d="m 11,3.5 -6,2 v 7 c 0,2.07 1.5795,3.4895 2.9395,4.4395 C 9.2995,17.8895 11,18.5 11,18.5 c 0,0 1.7005,-0.6106 3.0605,-1.5605 C 15.4205,15.9795 17,14.54 17,12.5 v -7 z m 0,3.5 3,4 h -2 v 3 H 10 V 11 H 8 Z"
       class="ColorScheme-Text"
       fill="currentColor"
       id="path11"
       style="fill-opacity:1;fill:url(#radialGradient865)" />
  </g>
  <g
     id="pamac-tray-update">
    <rect
       x="25"
       width="22"
       height="22"
       opacity="0"
       id="rect14"
       y="0" />
    <path
       d="m 36,3.5 -6,2 v 7 c 0,2.07 1.5795,3.4895 2.9395,4.4395 C 34.2995,17.8895 36,18.5 36,18.5 c 0,0 0.72619,-0.27351 1.5938,-0.70898 a 3,3 0 0 1 -0.59375,-1.791 3,3 0 0 1 3,-3 3,3 0 0 1 1.8203,0.61719 c 0.10639,-0.35242 0.17969,-0.72017 0.17969,-1.1172 v -7 z m 0,3.5 3,4 h -2 v 3 h -2 v -3 h -2 z"
       class="ColorScheme-Text"
       fill="currentColor"
       id="path16"
       style="fill-opacity:1.0;fill:url(#radialGradient911)" />
    <circle
       cx="40"
       cy="16"
       r="2"
       class="ColorScheme-Highlight"
       fill="currentColor"
       id="circle18"
       style="fill-opacity:1;fill:url(#radialGradient919)" />
  </g>
</svg>
