<?xml version="1.0" encoding="UTF-8" standalone="no"?>
<svg
   id="svg4168"
   width="55"
   height="32"
   version="1.1"
   viewBox="0 0 55 32"
   sodipodi:docname="plasmavault.svg"
   inkscape:version="1.1.1 (3bf5ae0d25, 2021-09-20, custom)"
   xmlns:inkscape="http://www.inkscape.org/namespaces/inkscape"
   xmlns:sodipodi="http://sodipodi.sourceforge.net/DTD/sodipodi-0.dtd"
   xmlns:xlink="http://www.w3.org/1999/xlink"
   xmlns="http://www.w3.org/2000/svg"
   xmlns:svg="http://www.w3.org/2000/svg">
  <sodipodi:namedview
     id="namedview11"
     pagecolor="#ffffff"
     bordercolor="#666666"
     borderopacity="1.0"
     inkscape:pageshadow="2"
     inkscape:pageopacity="0.0"
     inkscape:pagecheckerboard="0"
     showgrid="false"
     inkscape:zoom="8.6550534"
     inkscape:cx="12.30495"
     inkscape:cy="13.575884"
     inkscape:window-width="1323"
     inkscape:window-height="744"
     inkscape:window-x="43"
     inkscape:window-y="0"
     inkscape:window-maximized="1"
     inkscape:current-layer="svg4168" />
  <defs
     id="defs4157">
    <linearGradient
       inkscape:collect="always"
       id="linearGradient851">
      <stop
         style="stop-color:#ff0000;stop-opacity:1"
         offset="0"
         id="stop847" />
      <stop
         style="stop-color:#ff4b00;stop-opacity:1"
         offset="1"
         id="stop849" />
    </linearGradient>
    <style
       id="current-color-scheme"
       type="text/css">
   .ColorScheme-Text { color:#d3dae3; } .ColorScheme-Highlight { color:#5294e2; } .ColorScheme-ButtonBackground { color:#d3dae3; }
  </style>
    <radialGradient
       inkscape:collect="always"
       xlink:href="#linearGradient851"
       id="radialGradient853"
       cx="357.99759"
       cy="-246.00336"
       fx="357.99759"
       fy="-246.00336"
       r="7"
       gradientTransform="matrix(1,0,0,1.1428572,0,35.143363)"
       gradientUnits="userSpaceOnUse" />
    <radialGradient
       inkscape:collect="always"
       xlink:href="#linearGradient851"
       id="radialGradient975"
       cx="39"
       cy="16"
       fx="39"
       fy="16"
       r="11"
       gradientTransform="matrix(1,0,0,1.2727273,0,-4.3636364)"
       gradientUnits="userSpaceOnUse" />
  </defs>
  <g
     id="22-22-plasmavault"
     transform="translate(-347,267)"
     style="enable-background:new">
    <rect
       id="rect4192"
       width="22"
       height="22"
       x="347"
       y="-257"
       style="opacity:0;fill:#2b0000;fill-opacity:0.403922;fill-rule:nonzero;stroke:none;stroke-width:1;stroke-linecap:round;stroke-linejoin:round;stroke-miterlimit:4;stroke-dasharray:none;stroke-dashoffset:0;stroke-opacity:1" />
    <path
       id="path5975"
       class="ColorScheme-Text"
       d="m 357.99758,-254.00336 c -5.00262,-0.003 -4.99999,4.64286 -4.99999,4.64286 v 2.35714 h -0.83333 c -0.64633,0 -1.16667,0.36686 -1.16667,1 v 6.85714 c 0,0.63315 0.52034,1.14286 1.16667,1.14286 h 11.66666 c 0.64633,0 1.16667,-0.50971 1.16667,-1.14286 v -6.85714 c 0,-0.63314 -0.52963,-0.89079 -1.16667,-1 h -0.83333 v -2.35714 c 0,0 0.003,-4.6395 -5.00001,-4.64286 z m 0,3 c 2.00262,-0.003 2.00001,1.57143 2.00001,1.57143 v 2.42857 h -4 v -2.42857 c 0,0 0.003,-1.56807 1.99999,-1.57143 z"
       style="display:inline;overflow:visible;visibility:visible;opacity:1;fill:url(#radialGradient853);fill-opacity:1;fill-rule:nonzero;stroke:none;stroke-width:1;marker:none;enable-background:accumulate" />
  </g>
  <g
     id="plasmavault"
     transform="translate(23)">
    <rect
       id="rect4187"
       width="32"
       height="32"
       x="0"
       y="0"
       style="opacity:0.00100002;fill:#000000;fill-opacity:1;fill-rule:nonzero;stroke:none;stroke-width:2;stroke-linecap:round;stroke-linejoin:round;stroke-miterlimit:4;stroke-dasharray:none;stroke-opacity:1" />
    <path
       id="path4"
       class="ColorScheme-Text"
       d="m 39,2 c -4.432,0 -8,3.568 -8,8 v 3 H 29.400391 C 28.624791,13 28,13.624791 28,14.400391 V 28.599609 C 28,29.375209 28.624791,30 29.400391,30 H 48.599609 C 49.375209,30 50,29.375209 50,28.599609 V 14.400391 C 50,13.624791 49.375209,13 48.599609,13 H 47 V 10 C 47,5.568 43.432,2 39,2 Z m 0,3 c 2.77,0 5,2.23 5,5 v 3 H 34 v -3 c 0,-2.77 2.23,-5 5,-5 z"
       transform="translate(-23)"
       style="fill:url(#radialGradient975);fill-opacity:1.0" />
  </g>
</svg>
