<?xml version="1.0" encoding="UTF-8" standalone="no"?>
<svg
   id="svg2"
   width="32"
   height="32"
   version="1.1"
   viewBox="0 0 32 32"
   sodipodi:docname="system.svg"
   inkscape:version="1.1.1 (3bf5ae0d25, 2021-09-20, custom)"
   xmlns:inkscape="http://www.inkscape.org/namespaces/inkscape"
   xmlns:sodipodi="http://sodipodi.sourceforge.net/DTD/sodipodi-0.dtd"
   xmlns:xlink="http://www.w3.org/1999/xlink"
   xmlns="http://www.w3.org/2000/svg"
   xmlns:svg="http://www.w3.org/2000/svg">
  <sodipodi:namedview
     id="namedview57"
     pagecolor="#ffffff"
     bordercolor="#666666"
     borderopacity="1.0"
     inkscape:pageshadow="2"
     inkscape:pageopacity="0.0"
     inkscape:pagecheckerboard="0"
     showgrid="false"
     inkscape:zoom="9.4405073"
     inkscape:cx="21.767898"
     inkscape:cy="48.567306"
     inkscape:window-width="1323"
     inkscape:window-height="742"
     inkscape:window-x="43"
     inkscape:window-y="0"
     inkscape:window-maximized="1"
     inkscape:current-layer="svg2" />
  <defs
     id="defs87">
    <linearGradient
       inkscape:collect="always"
       id="linearGradient1007">
      <stop
         style="stop-color:#009cff;stop-opacity:1"
         offset="0"
         id="stop1003" />
      <stop
         style="stop-color:#0048f0;stop-opacity:1"
         offset="1"
         id="stop1005" />
    </linearGradient>
    <linearGradient
       inkscape:collect="always"
       id="linearGradient1743">
      <stop
         style="stop-color:#169981;stop-opacity:1"
         offset="0"
         id="stop1739" />
      <stop
         style="stop-color:#00f0a3;stop-opacity:1"
         offset="1"
         id="stop1741" />
    </linearGradient>
    <linearGradient
       inkscape:collect="always"
       id="linearGradient1621">
      <stop
         style="stop-color:#c902ff;stop-opacity:1;"
         offset="0"
         id="stop1617" />
      <stop
         style="stop-color:#3f00f4;stop-opacity:1"
         offset="1"
         id="stop1619" />
    </linearGradient>
    <linearGradient
       inkscape:collect="always"
       id="linearGradient1442">
      <stop
         style="stop-color:#ff6900;stop-opacity:1"
         offset="0"
         id="stop1438" />
      <stop
         style="stop-color:#ff1f00;stop-opacity:1"
         offset="1"
         id="stop1440" />
    </linearGradient>
    <linearGradient
       inkscape:collect="always"
       id="linearGradient1320">
      <stop
         style="stop-color:#008033;stop-opacity:1"
         offset="0"
         id="stop1316" />
      <stop
         style="stop-color:#2aff2a;stop-opacity:1"
         offset="1"
         id="stop1318" />
    </linearGradient>
    <linearGradient
       inkscape:collect="always"
       id="linearGradient1236">
      <stop
         style="stop-color:#d3dae3;stop-opacity:1;"
         offset="0"
         id="stop1232" />
      <stop
         style="stop-color:#0055d4;stop-opacity:1"
         offset="1"
         id="stop1234" />
    </linearGradient>
    <linearGradient
       inkscape:collect="always"
       id="linearGradient1087">
      <stop
         style="stop-color:#55ffdd;stop-opacity:1"
         offset="0"
         id="stop1083" />
      <stop
         style="stop-color:#2ca05a;stop-opacity:1"
         offset="1"
         id="stop1085" />
    </linearGradient>
    <linearGradient
       inkscape:collect="always"
       id="linearGradient897">
      <stop
         style="stop-color:#ff0001;stop-opacity:1"
         offset="0"
         id="stop893" />
      <stop
         style="stop-color:#ff2300;stop-opacity:1"
         offset="1"
         id="stop895" />
    </linearGradient>
    <style
       id="current-color-scheme"
       type="text/css">
   .ColorScheme-Text { color:#d3dae3; } .ColorScheme-Highlight { color:#5294e2; } .ColorScheme-ButtonBackground { color:#d3dae3; }
  </style>
    <radialGradient
       inkscape:collect="always"
       xlink:href="#linearGradient897"
       id="radialGradient899"
       cx="11"
       cy="1041.3622"
       fx="11"
       fy="1041.3622"
       r="6"
       gradientTransform="matrix(1,0,0,1.1666667,0,-173.56037)"
       gradientUnits="userSpaceOnUse" />
    <linearGradient
       inkscape:collect="always"
       xlink:href="#linearGradient897"
       id="linearGradient1005"
       x1="130"
       y1="16"
       x2="158"
       y2="16"
       gradientUnits="userSpaceOnUse" />
    <radialGradient
       inkscape:collect="always"
       xlink:href="#linearGradient1087"
       id="radialGradient1089"
       cx="176"
       cy="16"
       fx="176"
       fy="16"
       r="14"
       gradientUnits="userSpaceOnUse" />
    <radialGradient
       inkscape:collect="always"
       xlink:href="#linearGradient1236"
       id="radialGradient1238"
       cx="112"
       cy="16"
       fx="112"
       fy="16"
       r="14"
       gradientUnits="userSpaceOnUse" />
    <radialGradient
       inkscape:collect="always"
       xlink:href="#linearGradient1320"
       id="radialGradient1322"
       cx="80"
       cy="16"
       fx="80"
       fy="16"
       r="14"
       gradientUnits="userSpaceOnUse" />
    <radialGradient
       inkscape:collect="always"
       xlink:href="#linearGradient1442"
       id="radialGradient1444"
       cx="16"
       cy="16"
       fx="16"
       fy="16"
       r="14"
       gradientUnits="userSpaceOnUse" />
    <radialGradient
       inkscape:collect="always"
       xlink:href="#linearGradient1621"
       id="radialGradient1623"
       cx="-16"
       cy="16"
       fx="-16"
       fy="16"
       r="14"
       gradientUnits="userSpaceOnUse" />
    <radialGradient
       inkscape:collect="always"
       xlink:href="#linearGradient1743"
       id="radialGradient1745"
       cx="48"
       cy="16"
       fx="48"
       fy="16"
       r="14"
       gradientUnits="userSpaceOnUse" />
    <radialGradient
       inkscape:collect="always"
       xlink:href="#linearGradient1007"
       id="radialGradient2180"
       cx="80"
       cy="8"
       fx="80"
       fy="8"
       r="6.0000148"
       gradientTransform="matrix(1,0,0,1.0000279,0,-2.2315804e-4)"
       gradientUnits="userSpaceOnUse" />
    <radialGradient
       inkscape:collect="always"
       xlink:href="#linearGradient1007"
       id="radialGradient2188"
       cx="11"
       cy="1041.3622"
       fx="11"
       fy="1041.3622"
       r="5.9998188"
       gradientTransform="matrix(1,0,0,1.0000455,0,-0.0473316)"
       gradientUnits="userSpaceOnUse" />
    <radialGradient
       inkscape:collect="always"
       xlink:href="#linearGradient1007"
       id="radialGradient2196"
       cx="7.9999995"
       cy="8"
       fx="7.9999995"
       fy="8"
       r="6.0000148"
       gradientTransform="matrix(1,0,0,1.0000279,0,-2.2322654e-4)"
       gradientUnits="userSpaceOnUse" />
    <radialGradient
       inkscape:collect="always"
       xlink:href="#linearGradient1007"
       id="radialGradient2204"
       cx="11"
       cy="1040.8621"
       fx="11"
       fy="1040.8621"
       r="6"
       gradientTransform="matrix(1,0,0,1.0833485,0,-86.754275)"
       gradientUnits="userSpaceOnUse" />
    <radialGradient
       inkscape:collect="always"
       xlink:href="#linearGradient1007"
       id="radialGradient2212"
       cx="7.9999995"
       cy="8"
       fx="7.9999995"
       fy="8"
       r="6.0000148"
       gradientTransform="matrix(1,0,0,1.0000279,0,-2.2315388e-4)"
       gradientUnits="userSpaceOnUse" />
    <radialGradient
       inkscape:collect="always"
       xlink:href="#linearGradient1007"
       id="radialGradient2220"
       cx="11"
       cy="1041.3623"
       fx="11"
       fy="1041.3623"
       r="7.0000954"
       gradientTransform="matrix(1,0,0,0.85716689,0,148.74101)"
       gradientUnits="userSpaceOnUse" />
  </defs>
  <g
     id="22-22-system-suspend"
     transform="translate(-21.999999,-988.36218)">
    <rect
       id="rect4222"
       width="22"
       height="22"
       x="0"
       y="1030.36"
       style="opacity:0.00100002;fill:currentColor;fill-opacity:1;stroke:none;stroke-width:2;stroke-linecap:round;stroke-linejoin:round;stroke-miterlimit:4;stroke-dasharray:none;stroke-opacity:1" />
    <g
       id="g4380"
       transform="matrix(1.0009385,0,0,0.99883233,-322.31608,1012.4029)"
       style="display:inline;opacity:1;fill:currentColor;fill-opacity:1">
      <path
         id="path4398"
         class="ColorScheme-Text"
         d="M 8.0449219,2 C 5.4709885,1.9800034 3.1612109,3.6075004 2.3203125,6.0351562 2.0969331,6.6800174 1.9985687,7.3426625 2,8 1.9989991,8.6573375 2.0969831,9.3199826 2.3203125,9.9648438 3.1612109,12.3925 5.4709885,14.02 8.0449219,14 10.618845,13.980003 12.900212,12.315429 13.703125,9.875 13.906195,9.2577756 14.001361,8.6263907 14,8 14.001001,7.3736093 13.906205,6.7422244 13.703125,6.125 12.900212,3.684571 10.618845,2.0199966 8.0449219,2 Z M 8.0292969,3.9980469 C 9.7515617,4.0114312 11.263538,5.1131547 11.800781,6.7460938 11.936599,7.1589011 12.00029,7.582557 12,8 12.00029,8.417443 11.936639,8.8410989 11.800781,9.2539062 11.263538,10.886845 9.7515617,11.988573 8.0292969,12.001953 6.307032,12.015337 4.7736051,10.936893 4.2109375,9.3125 4.0615674,8.8812761 3.9955932,8.4378711 3.9960938,8 3.9955932,7.5621289 4.0615574,7.1187239 4.2109375,6.6875 4.7736051,5.0631071 6.307032,3.9846625 8.0292969,3.9980469 Z M 5.8554688,7 C 5.3807835,7 5,7.446 5,8 5,8.554 5.3807835,9 5.8554688,9 H 10.142578 C 10.61726,9 11,8.554 11,8 11,7.446 10.61726,7 10.142578,7 Z"
         transform="matrix(0.99906238,0,0,1.001169,325.01106,20.983802)"
         style="fill:url(#radialGradient2212);fill-opacity:1.0" />
    </g>
  </g>
  <g
     id="22-22-system-switch-user"
     transform="translate(1e-6,-988.36218)">
    <rect
       id="rect4220"
       width="22"
       height="22"
       x="0"
       y="1030.36"
       style="opacity:0.00100002;fill:currentColor;fill-opacity:1;stroke:none;stroke-width:2;stroke-linecap:round;stroke-linejoin:round;stroke-miterlimit:4;stroke-dasharray:none;stroke-opacity:1" />
    <path
       id="path4481"
       class="ColorScheme-Text"
       d="m 10.9943,1035.362 c -1.8700303,0 -3.3939153,1.5345 -3.4492153,3.4512 -0.0459,0.012 -0.0915,0.033 -0.13476,0.055 -0.43005,0.227 -0.54034,0.9343 -0.2461,1.5899 0.23672,0.5274 0.65753,0.8538 1.03906,0.8437 0.28723,1.7528 1.430425,3.0606 2.7910153,3.0606 h 0.0117 c 1.36059,0 2.5038,-1.3078 2.79102,-3.0606 0.38154,0.01 0.80234,-0.3163 1.03906,-0.8437 0.29424,-0.6556 0.18394,-1.3629 -0.24609,-1.5899 -0.0433,-0.023 -0.0888,-0.044 -0.13477,-0.055 -0.0553,-1.9167 -1.57919,-3.4512 -3.44922,-3.4512 z m 2.40039,8 c -0.28889,0.7005 -1.27408,1.2246 -2.44922,1.2246 -1.1698503,0 -2.1455953,-0.5173 -2.4394453,-1.2129 -2.46908,0.2581 -4.26818,0.8896 -4.48438,1.6367 -0.003,0.01 0.002,0.016 0,0.024 -0.007,0.026 -0.007,0.049 -0.01,0.076 -10e-4,0.012 -0.0117,0.021 -0.0117,0.035 -9e-5,0 0,0.011 0,0.012 v 1.8477 c 0,0.1976 0.15571,0.3574 0.34961,0.3574 H 17.65034 c 0.1939,0 0.3496,-0.1598 0.3496,-0.3574 v -1.8477 c 0,-0.01 3.5e-4,-0.015 0,-0.023 -0.002,-0.043 -0.0208,-0.081 -0.0332,-0.123 -0.22075,-0.7563 -2.05842,-1.3964 -4.57226,-1.6484 z"
       style="fill:url(#radialGradient2220);fill-opacity:1.0" />
  </g>
  <g
     id="22-22-system-shutdown"
     transform="translate(-43.999999,-988.36218)">
    <rect
       id="rect4229"
       width="22"
       height="22"
       x="0"
       y="1030.36"
       style="opacity:0.00100002;fill:currentColor;fill-opacity:1;stroke:none;stroke-width:2;stroke-linecap:round;stroke-linejoin:round;stroke-miterlimit:4;stroke-dasharray:none;stroke-opacity:1" />
    <path
       id="rect4324"
       class="ColorScheme-Text"
       d="m 11.000336,1034.362 c -0.553987,0 -0.99995,0.4462 -0.99995,1 v 5.0019 c 0,0.5538 0.445963,0.9981 0.99995,0.9981 0.553988,0 0.99995,-0.4443 0.99995,-0.9981 v -5.0019 c 0,-0.5538 -0.445962,-1 -0.99995,-1 z m 2.939305,1.9902 a 1.000176,0.99982748 0 0 0 -0.542942,1.8086 c 1.377976,1.0304 1.941017,2.8148 1.404226,4.4492 -0.536779,1.6344 -2.050513,2.7386 -3.771293,2.752 -1.7207811,0.013 -3.2501263,-1.0675 -3.8123083,-2.6934 -0.562183,-1.6258 -0.02587,-3.419 1.335869,-4.4707 a 1.000176,0.99982748 0 1 0 -1.222594,-1.582 c -2.035135,1.5718 -2.842036,4.2772 -2.001852,6.707 0.840173,2.4298 3.144793,4.0591 5.7165093,4.0391 2.571705,-0.02 4.853744,-1.6863 5.655965,-4.1289 0.80223,-2.4426 -0.04794,-5.1339 -2.107316,-6.6739 a 1.000176,0.99982748 0 0 0 -0.654264,-0.207 z"
       style="fill:url(#radialGradient2204);fill-opacity:1.0" />
  </g>
  <g
     id="22-22-system-log-out"
     transform="rotate(-90,-516.18115,580.18115)">
    <rect
       id="rect4235"
       width="22"
       height="22"
       x="0"
       y="1030.36"
       style="opacity:0.00100002;fill:currentColor;fill-opacity:1;stroke:none;stroke-width:2;stroke-linecap:round;stroke-linejoin:round;stroke-miterlimit:4;stroke-dasharray:none;stroke-opacity:1" />
    <g
       id="layer12"
       transform="matrix(1.0009385,0,0,0.99883233,-322.31609,1012.4029)"
       style="display:inline;opacity:1;fill:currentColor;fill-opacity:1">
      <path
         id="path6796"
         class="ColorScheme-Text"
         d="M 8.0449219,2 C 5.4709885,1.98 3.161211,3.6075002 2.3203125,6.0351562 2.0969411,6.6800174 1.998566,7.342662 2,8 1.998566,8.657338 2.0969411,9.3199826 2.3203125,9.9648438 3.161211,12.3925 5.4709885,14.02 8.0449219,14 10.618845,13.980003 12.900212,12.315429 13.703125,9.875 13.906197,9.2577753 14.001356,8.626391 14,8 14.001356,7.373609 13.906197,6.7422247 13.703125,6.125 12.900212,3.6845712 10.618845,2.019997 8.0449219,2 Z M 8.0292969,3.9980469 C 9.7515617,4.0114279 11.263537,5.1131547 11.800781,6.7460938 11.9366,7.1589017 12.00029,7.5825571 12,8 12.00029,8.4174429 11.936599,8.8410983 11.800781,9.2539062 11.263537,10.886845 9.7515617,11.988572 8.0292969,12.001953 6.307032,12.015337 4.773605,10.936893 4.2109375,9.3125 4.0615674,8.881276 3.995597,8.4378713 3.9960938,8 3.995597,7.5621287 4.0615674,7.118724 4.2109375,6.6875 4.773605,5.0631072 6.307032,3.9846629 8.0292969,3.9980469 Z M 6.4746094,6 A 0.4736353,0.52746185 0 0 0 6.0625,6.7890625 L 7.5898438,9.734375 A 0.4736353,0.52746185 0 0 0 7.9746094,10 0.4736353,0.52746185 0 0 0 8.0234375,10 0.4736353,0.52746185 0 0 0 8.4101562,9.734375 L 9.9375,6.7890625 A 0.4736353,0.52746185 0 0 0 9.5273438,6 Z"
         transform="matrix(0.99906238,0,0,1.001169,325.01107,20.983802)"
         style="fill:url(#radialGradient2196);fill-opacity:1.0" />
    </g>
  </g>
  <g
     id="22-22-system-reboot"
     transform="matrix(-1,0,0,1,-65.999999,-988.36218)">
    <rect
       id="rect4242"
       width="22"
       height="22"
       x="0"
       y="1030.36"
       style="opacity:0.00100002;fill:currentColor;fill-opacity:1;stroke:none;stroke-width:2;stroke-linecap:round;stroke-linejoin:round;stroke-miterlimit:4;stroke-dasharray:none;stroke-opacity:1" />
    <path
       id="path4360"
       class="ColorScheme-Text"
       d="m 11.475393,1035.3621 a 0.4736353,0.52746183 0 0 0 -0.412109,0.7891 l 1.527343,2.9453 a 0.4736353,0.52746183 0 0 0 0.384766,0.2656 0.4736353,0.52746183 0 0 0 0.04883,0 0.4736353,0.52746183 0 0 0 0.386718,-0.2656 l 0.326172,-0.6289 c 1.12174,1.0534 1.553588,2.6586 1.064453,4.1465 -0.536781,1.6327 -2.050703,2.7366 -3.771484,2.75 -1.7207807,0.013 -3.2503167,-1.0672 -3.8124997,-2.6915 -0.562183,-1.6242 -0.02584,-3.4141 1.335938,-4.4648 a 1.0005526,0.99921387 0 1 0 -1.222657,-1.582 c -2.035134,1.5702 -2.842137,4.2737 -2.001953,6.7011 0.840174,2.4275 3.145082,4.0552 5.7167967,4.0352 2.571705,-0.02 4.854029,-1.6848 5.65625,-4.125 0.789982,-2.4029 -0.02804,-5.0426 -2.019531,-6.5918 l 0.255859,-0.4941 a 0.4736353,0.52746183 0 0 0 -0.410156,-0.7891 h -3.052734 z"
       style="fill:url(#radialGradient2188);fill-opacity:1.0" />
  </g>
  <g
     id="22-22-system-suspend-hibernate"
     transform="translate(-110,-988.36218)">
    <rect
       id="rect4248"
       width="22"
       height="22"
       x="0"
       y="1030.36"
       style="opacity:0.00100002;fill:currentColor;fill-opacity:1;stroke:none;stroke-width:2;stroke-linecap:round;stroke-linejoin:round;stroke-miterlimit:4;stroke-dasharray:none;stroke-opacity:1" />
    <g
       id="g4447"
       transform="matrix(1.0009385,0,0,0.99883233,-322.31607,1012.4029)"
       style="display:inline;opacity:1;fill:currentColor;fill-opacity:1">
      <path
         id="path4455"
         class="ColorScheme-Text"
         d="M 80.044922,2 C 77.470989,1.9800034 75.161212,3.6075014 74.320312,6.0351562 74.096933,6.6800174 73.998569,7.3426625 74,8 73.999,8.6573375 74.09698,9.3199826 74.320312,9.9648438 75.161212,12.3925 77.470989,14.02 80.044922,14 82.618845,13.98 84.900212,12.315429 85.703125,9.875 85.906195,9.2577756 86.001361,8.6263907 86,8 86.001001,7.3736093 85.906205,6.7422244 85.703125,6.125 84.900212,3.684571 82.618845,2.0199966 80.044922,2 Z m -0.01563,1.9980469 c 1.722265,0.013384 3.234241,1.1151078 3.771484,2.7480469 C 83.936599,7.1589011 84.00029,7.582557 84,8 84.00029,8.417443 83.936639,8.8410989 83.800781,9.2539062 83.263538,10.886845 81.751562,11.988574 80.029297,12.001953 78.307032,12.015337 76.773605,10.936893 76.210938,9.3125 76.061566,8.8812761 75.995593,8.4378711 75.996094,8 75.995593,7.5621289 76.061556,7.1187239 76.210938,6.6875 76.773605,5.0631071 78.307032,3.9846625 80.029297,3.9980469 Z M 80,6 a 2,2 0 0 0 -2,2 2,2 0 0 0 2,2 2,2 0 0 0 2,-2 2,2 0 0 0 -2,-2 z"
         transform="matrix(0.99906238,0,0,1.001169,253.07856,20.983802)"
         style="fill:url(#radialGradient2180);fill-opacity:1" />
    </g>
  </g>
  <g
     id="22-22-system-lock-screen"
     transform="translate(22.000001,-988.36218)">
    <rect
       id="rect4255"
       width="22"
       height="22"
       x="0"
       y="1030.36"
       style="opacity:0.00100002;fill:currentColor;fill-opacity:1;stroke:none;stroke-width:2;stroke-linecap:round;stroke-linejoin:round;stroke-miterlimit:4;stroke-dasharray:none;stroke-opacity:1" />
    <path
       id="path5975"
       class="ColorScheme-Text"
       d="m 11,1034.3622 c -2.216,0 -4,1.8216 -4,4.0625 v 1.9375 H 6 c -0.554,0 -1,0.446 -1,1 v 6 c 0,0.554 0.446,1 1,1 h 10 c 0.554,0 1,-0.446 1,-1 v -6 c 0,-0.554 -0.446,-1 -1,-1 h -1 v -1.9375 c 0,-2.24 -1.784,-4.0625 -4,-4.0625 z m 0,2 c 1.108,0 2,0.892 2,2 v 2 H 9 v -2 c 0,-1.108 0.892,-2 2,-2 z"
       style="fill:url(#radialGradient899);fill-opacity:1" />
  </g>
  <g
     id="system-log-out"
     transform="translate(0,-1020.3622)">
    <rect
       id="rect17072"
       width="32"
       height="32"
       x="96"
       y="1020.36"
       style="opacity:0.00100002;fill:currentColor;fill-opacity:1;stroke:none;stroke-width:2;stroke-linecap:round;stroke-linejoin:round;stroke-miterlimit:4;stroke-dasharray:none;stroke-opacity:1" />
    <g
       id="g5182"
       transform="translate(96,1020.3622)">
      <path
         id="path5180"
         class="ColorScheme-Text"
         d="M 112,2 A 14,14 0 0 0 98,16 14,14 0 0 0 112,30 14,14 0 0 0 126,16 14,14 0 0 0 112,2 Z m 0,5 a 9,9 0 0 1 9,9 9,9 0 0 1 -9,9 9,9 0 0 1 -9,-9 9,9 0 0 1 9,-9 z m 0,2 a 7,7 0 0 0 -7,7 7,7 0 0 0 7,7 7,7 0 0 0 7,-7 7,7 0 0 0 -7,-7 z m 0,4 1.98242,1.539062 L 116,16 113.98438,17.460938 112,19 112.0234,17 H 109 c -0.554,0 -1,-0.446 -1,-1 0,-0.554 0.446,-1 1,-1 h 3.02344 z"
         transform="translate(-96)"
         style="fill:url(#radialGradient1238);fill-opacity:1" />
    </g>
  </g>
  <g
     id="system-shutdown"
     transform="translate(0,-1020.3622)">
    <rect
       id="rect10931"
       width="32"
       height="32"
       x="32"
       y="1020.36"
       style="opacity:0.00100002;fill:currentColor;fill-opacity:1;stroke:none;stroke-width:2;stroke-linecap:round;stroke-linejoin:round;stroke-miterlimit:4;stroke-dasharray:none;stroke-opacity:1" />
    <g
       id="g4975"
       transform="translate(32,1020.3622)">
      <path
         id="path4975"
         class="ColorScheme-Text"
         d="M 48,2 A 14,14 0 0 0 34,16 14,14 0 0 0 48,30 14,14 0 0 0 62,16 14,14 0 0 0 48,2 Z m 0,5 a 9,9 0 0 1 9,9 9,9 0 0 1 -9,9 9,9 0 0 1 -9,-9 9,9 0 0 1 9,-9 z m 0,2 a 7,7 0 0 0 -7,7 7,7 0 0 0 7,7 7,7 0 0 0 7,-7 7,7 0 0 0 -7,-7 z m 0,3 c 0.554,0 1,0.446 1,1 v 6 c 0,0.554 -0.446,1 -1,1 -0.554,0 -1,-0.446 -1,-1 v -6 c 0,-0.554 0.446,-1 1,-1 z"
         transform="translate(-32)"
         style="fill:url(#radialGradient1745);fill-opacity:1" />
    </g>
  </g>
  <g
     id="system-suspend-hibernate"
     transform="translate(64,-1020.3622)">
    <rect
       id="rect10958"
       width="32"
       height="32"
       x="0"
       y="1020.36"
       style="opacity:0.00100002;fill:currentColor;fill-opacity:1;stroke:none;stroke-width:2;stroke-linecap:round;stroke-linejoin:round;stroke-miterlimit:4;stroke-dasharray:none;stroke-opacity:1" />
    <g
       id="g5391"
       transform="translate(0,1020.3622)">
      <path
         id="path5391"
         class="ColorScheme-Text"
         d="M 80,2 A 14,14 0 0 0 66,16 14,14 0 0 0 80,30 14,14 0 0 0 94,16 14,14 0 0 0 80,2 Z m 0,5 c 4.9706,0 9,4.0294 9,9 0,4.9706 -4.0294,9 -9,9 -4.9706,0 -9,-4.0294 -9,-9 0,-4.9706 4.0294,-9 9,-9 z m 0,2 c -3.866,0 -7,3.134 -7,7 0,3.866 3.134,7 7,7 3.866,0 7,-3.134 7,-7 0,-3.866 -3.134,-7 -7,-7 z m 0,5 a 2,2 0 0 1 2,2 2,2 0 0 1 -2,2 2,2 0 0 1 -2,-2 2,2 0 0 1 2,-2 z"
         transform="translate(-64)"
         style="fill:url(#radialGradient1322);fill-opacity:1" />
    </g>
  </g>
  <g
     id="system-switch-user"
     transform="translate(160,-1020.3622)">
    <rect
       id="rect11647"
       width="32"
       height="32"
       x="0"
       y="1020.36"
       style="opacity:0.00100002;fill:currentColor;fill-opacity:1;stroke:none;stroke-width:2;stroke-linecap:round;stroke-linejoin:round;stroke-miterlimit:4;stroke-dasharray:none;stroke-opacity:1" />
    <g
       id="g4766"
       transform="translate(0,1020.3622)">
      <path
         id="path4766"
         class="ColorScheme-Text"
         d="M 176,2 A 14,14 0 0 0 162,16 14,14 0 0 0 176,30 14,14 0 0 0 190,16 14,14 0 0 0 176,2 Z m -3,6 c 0.665,0 1,0.4128812 1,0.9257812 V 20 h 3 l -4,4 -4,-4 h 3 V 8.9257812 C 172,8.4128812 172.335,8 173,8 Z m 6,0 4,4 h -3 V 23.074219 C 180,23.587089 179.6648,24 179,24 c -0.665,0 -1,-0.412781 -1,-0.925781 V 12 h -3 z"
         transform="translate(-160)"
         style="fill:url(#radialGradient1089);fill-opacity:1" />
    </g>
  </g>
  <g
     id="system-suspend">
    <rect
       id="rect10929"
       class="ColorScheme-Text"
       width="32"
       height="32"
       x="-32"
       y="0"
       style="opacity:0.00100002;fill:currentColor;fill-opacity:1;stroke:none;stroke-width:2;stroke-linecap:round;stroke-linejoin:round;stroke-miterlimit:4;stroke-dasharray:none;stroke-opacity:1" />
    <g
       id="system-suspend2"
       transform="translate(-32)">
      <path
         id="path5182"
         class="ColorScheme-Text"
         d="M -16,2 A 14,14 0 0 0 -30,16 14,14 0 0 0 -16,30 14,14 0 0 0 -2,16 14,14 0 0 0 -16,2 Z m 0,5 a 9,9 0 0 1 9,9 9,9 0 0 1 -9,9 9,9 0 0 1 -9,-9 9,9 0 0 1 9,-9 z m 0,2 a 7,7 0 0 0 -7,7 7,7 0 0 0 7,7 7,7 0 0 0 7,-7 7,7 0 0 0 -7,-7 z m -3,6 h 6 c 0.554,0 1,0.446 1,1 0,0.554 -0.446,1 -1,1 h -6 c -0.554,0 -1,-0.446 -1,-1 0,-0.554 0.446,-1 1,-1 z"
         transform="translate(32)"
         style="fill:url(#radialGradient1623);fill-opacity:1" />
    </g>
  </g>
  <g
     id="system-reboot"
     transform="translate(0,-1020.3622)">
    <rect
       id="rect11699"
       width="32"
       height="32"
       x="0"
       y="1020.36"
       style="opacity:0.00100002;fill:currentColor;fill-opacity:1;stroke:none;stroke-width:2;stroke-linecap:round;stroke-linejoin:round;stroke-miterlimit:4;stroke-dasharray:none;stroke-opacity:1" />
    <g
       id="g4768"
       transform="translate(0,1020.3622)">
      <path
         id="path4770"
         class="ColorScheme-Text"
         d="M 16,2 A 14,14 0 0 0 2,16 14,14 0 0 0 16,30 14,14 0 0 0 30,16 14,14 0 0 0 16,2 Z m -2,2 4,4 -4,4 V 9.2988281 C 11.036,10.182828 9.0031,12.907 9,16 c 0,3.866 3.134,7 7,7 3.477,-0.004 6.422922,-2.559 6.919922,-6 0,0 0.08008,-1 1.080078,-1 1,0 0.933594,1 0.933594,1 C 24.424794,21.5512 20.5795,24.9946 16,25 11.0294,25 7,20.9706 7,16 7.0044,11.803 9.9084,8.166875 14,7.234375 Z"
         style="fill:url(#radialGradient1444);fill-opacity:1" />
    </g>
  </g>
  <g
     id="system-lock-screen"
     transform="translate(0,-1020.3622)">
    <rect
       id="rect10985"
       width="32"
       height="32"
       x="128"
       y="1020.36"
       style="opacity:0.00100002;fill:currentColor;fill-opacity:1;stroke:none;stroke-width:2;stroke-linecap:round;stroke-linejoin:round;stroke-miterlimit:4;stroke-dasharray:none;stroke-opacity:1" />
    <g
       id="g4934"
       transform="translate(128,1.7382813e-5)">
      <path
         id="path4350"
         class="ColorScheme-Text"
         d="M 144,2 A 14,14 0 0 0 130,16 14,14 0 0 0 144,30 14,14 0 0 0 158,16 14,14 0 0 0 144,2 Z m 0,4 c 2.82,0 5,2.2932781 5,5.142578 V 13 h 1.10938 C 150.60138,12.968 151,13.472703 151,13.970703 v 9.128906 C 151,23.597609 150.60237,24 150.10938,24 H 137.89062 C 137.39742,24 137,23.597609 137,23.099609 V 13.970703 C 137,13.472703 137.39742,13 137.89062,13 H 139 V 11.142578 C 139,8.2933781 141.1796,6 144,6 Z m 0,2 c -1.763,0 -3,1.3615781 -3,3.142578 V 13 h 6 V 11.142578 C 147,9.3617781 145.7627,8 144,8 Z"
         transform="translate(-128,1020.3622)"
         style="fill:url(#linearGradient1005);fill-opacity:1.0" />
    </g>
  </g>
</svg>
