<?xml version="1.0" encoding="UTF-8" standalone="no"?>
<svg
   width="32"
   height="32"
   version="1.1"
   id="svg12"
   sodipodi:docname="view.svg"
   inkscape:version="1.1.1 (3bf5ae0d25, 2021-09-20, custom)"
   xmlns:inkscape="http://www.inkscape.org/namespaces/inkscape"
   xmlns:sodipodi="http://sodipodi.sourceforge.net/DTD/sodipodi-0.dtd"
   xmlns:xlink="http://www.w3.org/1999/xlink"
   xmlns="http://www.w3.org/2000/svg"
   xmlns:svg="http://www.w3.org/2000/svg">
  <sodipodi:namedview
     id="namedview14"
     pagecolor="#ffffff"
     bordercolor="#666666"
     borderopacity="1.0"
     inkscape:pageshadow="2"
     inkscape:pageopacity="0.0"
     inkscape:pagecheckerboard="0"
     showgrid="false"
     inkscape:zoom="7.3355564"
     inkscape:cx="33.194483"
     inkscape:cy="28.014235"
     inkscape:window-width="1323"
     inkscape:window-height="744"
     inkscape:window-x="43"
     inkscape:window-y="0"
     inkscape:window-maximized="1"
     inkscape:current-layer="svg12" />
  <defs
     id="defs7386">
    <linearGradient
       inkscape:collect="always"
       id="linearGradient873">
      <stop
         style="stop-color:#ff0000;stop-opacity:1;"
         offset="0"
         id="stop869" />
      <stop
         style="stop-color:#de521d;stop-opacity:1"
         offset="1"
         id="stop871" />
    </linearGradient>
    <style
       id="current-color-scheme"
       type="text/css">
   .ColorScheme-Text { color:#d3dae3; } .ColorScheme-Highlight { color:#5294e2; } .ColorScheme-ButtonBackground { color:#d3dae3; }
  </style>
    <radialGradient
       inkscape:collect="always"
       xlink:href="#linearGradient873"
       id="radialGradient877"
       cx="16"
       cy="16"
       fx="16"
       fy="16"
       r="14"
       gradientUnits="userSpaceOnUse" />
    <linearGradient
       inkscape:collect="always"
       xlink:href="#linearGradient873"
       id="linearGradient923"
       x1="487.06171"
       y1="48.017578"
       x2="499.06186"
       y2="48.017578"
       gradientUnits="userSpaceOnUse" />
  </defs>
  <g
     id="view-refresh"
     transform="translate(-250.00021,54.000004)">
    <path
       id="path4156"
       d="m 282.00021,-38.000004 h 16 v 16 h -16 z"
       style="opacity:0;fill:#ff0000;fill-opacity:1;fill-rule:nonzero;stroke:none;stroke-width:1;stroke-linecap:round;stroke-linejoin:round;stroke-miterlimit:4;stroke-dasharray:none;stroke-dashoffset:0;stroke-opacity:1" />
    <g
       id="g4149"
       transform="translate(281.97246,-37.000109)"
       style="enable-background:new">
      <g
         id="layer12-0"
         transform="translate(-485.03396,-41.017475)"
         style="display:inline">
        <path
           id="path6694"
           class="ColorScheme-Text"
           d="m 499.06185,49.01758 c 0,3.31371 -2.68629,6 -6,6 -3.28006,0 -5.94034,-2.63316 -5.99414,-5.90039 a 1,1 0 0 1 -0.006,-0.09961 1,1 0 0 1 1,-1 1,1 0 0 1 1,1 c 0,2.20914 1.79086,4 4,4 2.20914,0 4,-1.79086 4,-4 0,-2.20914 -1.79086,-4 -4,-4 v 2 l -4,-3 4,-3 v 2 c 3.31371,0 6,2.68629 6,6 z"
           style="fill:url(#linearGradient923);fill-opacity:1.0" />
      </g>
    </g>
  </g>
  <g
     id="view-history">
    <rect
       id="rect8345"
       width="32"
       height="32"
       x="0"
       y="0"
       style="opacity:0.00100002;fill:#000000;fill-opacity:1;stroke:none;stroke-width:1.18293;stroke-linecap:round;stroke-linejoin:round;stroke-miterlimit:4;stroke-dasharray:none;stroke-opacity:1" />
    <path
       id="rect4255"
       class="ColorScheme-Text"
       d="M 16,2 C 8.244,2 2,8.244 2,16 2,23.756 8.244,30 16,30 23.756,30 30,23.756 30,16 30,8.244 23.756,2 16,2 Z m 0,3 c 3.045355,0 5.788693,1.2346502 7.775391,3.2246094 v 0.00391 l 0.002,-0.00195 C 25.76537,10.214452 27,12.955494 27,16.001953 27,22.094871 22.093459,27 16,27 v -0.002 C 9.9065407,26.998094 5,22.092918 5,16 5,12.954916 6.2344734,10.21308 8.2246094,8.2265625 10.212682,6.2386655 12.953271,5.0039062 16,5.0039062 Z m 0,3 c -1.108,0 -2,0.892 -2,2 v 6 c 0,1.108 0.892,2 2,2 h 6 c 1.108,0 2,-0.892 2,-2 0,-1.108 -0.892,-2 -2,-2 H 18 V 10 C 18,8.892 17.108,8 16,8 Z"
       style="fill:url(#radialGradient877);fill-opacity:1" />
  </g>
</svg>
