<?xml version="1.0" encoding="UTF-8" standalone="no"?>
<svg
   id="svg"
   version="1.1"
   viewBox="0 0 22 22"
   sodipodi:docname="wallet.svg"
   inkscape:version="1.1.1 (3bf5ae0d25, 2021-09-20, custom)"
   xmlns:inkscape="http://www.inkscape.org/namespaces/inkscape"
   xmlns:sodipodi="http://sodipodi.sourceforge.net/DTD/sodipodi-0.dtd"
   xmlns:xlink="http://www.w3.org/1999/xlink"
   xmlns="http://www.w3.org/2000/svg"
   xmlns:svg="http://www.w3.org/2000/svg">
  <sodipodi:namedview
     id="namedview16"
     pagecolor="#ffffff"
     bordercolor="#666666"
     borderopacity="1.0"
     inkscape:pageshadow="2"
     inkscape:pageopacity="0.0"
     inkscape:pagecheckerboard="0"
     showgrid="false"
     inkscape:zoom="8.941329"
     inkscape:cx="26.282446"
     inkscape:cy="8.1084143"
     inkscape:window-width="1366"
     inkscape:window-height="706"
     inkscape:window-x="0"
     inkscape:window-y="0"
     inkscape:window-maximized="1"
     inkscape:current-layer="svg" />
  <defs
     id="defs3">
    <linearGradient
       inkscape:collect="always"
       id="linearGradient875">
      <stop
         style="stop-color:#000880;stop-opacity:1"
         offset="0"
         id="stop871" />
      <stop
         style="stop-color:#f600ff;stop-opacity:1"
         offset="1"
         id="stop873" />
    </linearGradient>
    <style
       id="current-color-scheme"
       type="text/css">.ColorScheme-Text{color:#dfdfdf}</style>
    <linearGradient
       inkscape:collect="always"
       xlink:href="#linearGradient875"
       id="linearGradient877"
       x1="2"
       y1="11"
       x2="20"
       y2="11"
       gradientUnits="userSpaceOnUse" />
    <linearGradient
       inkscape:collect="always"
       xlink:href="#linearGradient875"
       id="linearGradient1037"
       x1="30"
       y1="13"
       x2="48"
       y2="13"
       gradientUnits="userSpaceOnUse" />
  </defs>
  <g
     id="wallet-open">
    <path
       d="M 3,3 V 7 H 2 v 11 c 0,0.554 0.446,1 1,1 H 20 V 8 C 20,7.446 19.554,7 19,7 H 14 V 3 Z m 1,1 h 9 V 7 H 10.4922 C 10.02176,6.37273 9.2841,6.00251 8.5,6 7.71381,6.0006291 6.9737,6.37105 6.502,7 H 4 Z m 8,7 h 7 v 4 h -7 c -1.108,0 -2,-0.892 -2,-2 0,-1.108 0.892,-2 2,-2 z m 0,1 a 1,1 0 0 0 -1,1 1,1 0 0 0 1,1 1,1 0 0 0 1,-1 1,1 0 0 0 -1,-1 z"
       color="#dfdfdf"
       fill="currentColor"
       id="path5"
       style="fill:url(#linearGradient877);fill-opacity:1" />
    <path
       d="M 0,0 H 22 V 22 H 0 Z"
       fill="none"
       id="path7" />
  </g>
  <g
     id="wallet-closed"
     transform="translate(28)">
    <path
       transform="translate(-28)"
       d="m 30,7 v 11 c 0,0.554 0.446,1 1,1 H 48 V 8 C 48,7.446 47.554,7 47,7 H 44 42 41 38.4922 34.502 32 31 Z m 10,4 h 7 v 4 h -7 c -1.108,0 -2,-0.892 -2,-2 0,-1.108 0.892,-2 2,-2 z m 0,1 a 1,1 0 0 0 -1,1 1,1 0 0 0 1,1 1,1 0 0 0 1,-1 1,1 0 0 0 -1,-1 z"
       color="#dfdfdf"
       fill="currentColor"
       id="path10"
       style="fill-opacity:1.0;fill:url(#linearGradient1037)" />
    <path
       d="M 0,0 H 22 V 22 H 0 Z"
       fill="none"
       id="path12" />
  </g>
</svg>
